<?xml version="1.0" standalone="no"?>
<!DOCTYPE svg PUBLIC "-//W3C//DTD SVG 20010904//EN"
 "http://www.w3.org/TR/2001/REC-SVG-20010904/DTD/svg10.dtd">
<svg version="1.0" xmlns="http://www.w3.org/2000/svg"
 width="673.000000pt" height="1170.000000pt" viewBox="0 0 673.000000 1170.000000"
 preserveAspectRatio="xMidYMid meet">

<g transform="translate(0.000000,1170.000000) scale(0.100000,-0.100000)"
fill="#000000" stroke="none">
<path d="M475 11597 c-53 -21 -89 -47 -116 -85 -28 -39 -56 -118 -46 -128 4
-4 20 -1 37 6 17 7 33 10 36 7 12 -11 -7 -26 -41 -33 -19 -3 -35 -10 -35 -15
0 -12 7 -11 31 2 37 19 44 2 9 -20 -33 -21 -33 -22 -7 -17 31 7 37 -9 7 -19
-11 -3 -20 -11 -20 -16 0 -6 8 -6 20 1 14 8 20 8 20 0 0 -6 -7 -13 -15 -16 -8
-4 -12 -10 -9 -16 3 -5 15 0 25 11 11 12 23 21 27 21 13 0 44 67 42 91 -4 45
0 60 12 53 8 -5 9 -2 5 9 -3 10 -3 17 1 18 27 3 46 9 55 18 15 15 53 14 80 -1
12 -7 28 -13 36 -14 26 -5 35 -24 33 -69 -2 -66 27 -110 73 -110 39 0 46 10
15 20 -11 3 -20 11 -20 16 0 12 7 11 31 -1 10 -6 19 -7 19 -2 0 5 -11 14 -25
20 -26 12 -36 39 -10 28 8 -3 22 -9 30 -12 8 -3 15 -2 15 3 0 5 -17 14 -37 19
-20 5 -39 15 -41 23 -3 10 1 12 17 8 11 -4 30 -10 41 -13 12 -4 20 -2 20 5 0
6 -3 10 -7 10 -28 -6 -90 16 -106 37 -18 24 -18 24 6 24 14 0 31 7 38 16 12
14 15 11 31 -25 22 -52 40 -55 25 -3 -16 51 -101 134 -153 150 -51 15 -109 14
-149 -1z m85 -17 c0 -5 6 -10 14 -10 9 0 12 -8 8 -26 -4 -24 -3 -25 16 -15 29
15 42 14 36 -4 -5 -11 -2 -13 10 -9 19 7 20 -5 2 -28 -11 -15 -18 -16 -49 -6
-27 8 -50 8 -84 1 -40 -10 -49 -9 -60 5 -17 23 -16 33 4 25 12 -5 15 -2 10 10
-7 20 6 22 35 6 19 -10 20 -9 14 15 -5 19 -3 26 9 26 8 0 15 5 15 10 0 6 5 10
10 10 6 0 10 -4 10 -10z m-139 -120 l23 0 -22 -22 c-20 -20 -108 -55 -99 -40
2 4 12 26 23 49 17 37 21 40 35 27 8 -8 26 -14 40 -14z"/>
<path d="M538 11513 c7 -3 16 -2 19 1 4 3 -2 6 -13 5 -11 0 -14 -3 -6 -6z"/>
<path d="M497 11443 c-4 -3 -7 -15 -7 -25 0 -16 2 -17 14 -6 8 7 12 16 9 21
-2 4 0 7 6 7 5 0 12 -6 14 -12 3 -8 6 -6 6 5 1 17 -28 24 -42 10z"/>
<path d="M560 11435 c0 -8 4 -15 8 -15 5 0 9 7 9 15 0 8 -4 15 -9 15 -4 0 -8
-7 -8 -15z"/>
<path d="M595 11429 c6 -30 15 -37 15 -11 0 11 -4 23 -9 27 -6 3 -8 -4 -6 -16z"/>
<path d="M616 11395 c-4 -39 -2 -64 8 -83 12 -23 12 -31 0 -52 -17 -32 -17
-59 1 -90 17 -30 20 -11 4 24 -10 20 -9 32 4 58 14 28 14 35 1 60 -10 19 -12
43 -8 83 4 30 5 55 2 55 -3 0 -8 -25 -12 -55z"/>
<path d="M475 11390 c3 -36 0 -64 -9 -80 -12 -21 -12 -29 1 -54 13 -25 13 -35
2 -68 -7 -21 -10 -40 -7 -43 3 -3 11 13 18 35 12 35 11 45 -2 73 -14 29 -14
36 -1 61 11 22 12 38 4 79 l-10 52 4 -55z"/>
<path d="M451 11384 c0 -11 3 -14 6 -6 3 7 2 16 -1 19 -3 4 -6 -2 -5 -13z"/>
<path d="M637 11373 c-3 -17 1 -39 11 -55 13 -23 14 -32 3 -66 -11 -34 -11
-43 4 -68 9 -16 13 -20 10 -9 -17 47 -15 58 4 25 18 -31 27 -33 22 -6 -1 5 5
6 14 3 30 -12 12 23 -21 41 -16 8 -20 18 -17 36 3 14 -2 35 -10 47 -10 14 -14
33 -10 50 3 16 3 29 0 29 -2 0 -7 -12 -10 -27z"/>
<path d="M573 11369 c-17 -17 -24 -19 -42 -10 -18 10 -21 9 -21 -6 -1 -10 -7
-29 -14 -43 -12 -21 -12 -29 1 -54 14 -28 14 -62 -2 -98 -4 -10 -3 -18 1 -18
5 0 14 17 21 37 9 30 9 43 -3 65 -25 48 -12 89 33 100 16 4 26 -1 38 -18 19
-29 19 -49 0 -78 -14 -20 -14 -30 -3 -65 7 -22 17 -41 22 -41 4 0 5 8 1 18
-16 36 -16 70 -1 99 13 27 13 32 -1 52 -8 13 -13 35 -11 52 3 16 4 29 3 29 0
0 -10 -9 -22 -21z"/>
<path d="M446 11325 c-10 -19 -16 -43 -13 -55 4 -16 -1 -24 -19 -32 -13 -6
-24 -15 -24 -20 0 -18 2 -23 11 -20 5 1 8 -1 8 -5 -4 -26 5 -23 22 7 19 33 21
22 4 -25 -3 -11 1 -7 10 9 15 25 15 34 4 68 -11 34 -10 43 5 69 10 17 16 32
14 34 -2 2 -12 -11 -22 -30z"/>
<path d="M732 11258 c5 -15 28 -23 28 -10 0 5 -7 13 -16 16 -10 4 -14 1 -12
-6z"/>
<path d="M365 11230 c-3 -5 -1 -10 4 -10 6 0 11 5 11 10 0 6 -2 10 -4 10 -3 0
-8 -4 -11 -10z"/>
<path d="M720 11230 c0 -5 5 -10 11 -10 5 0 7 5 4 10 -3 6 -8 10 -11 10 -2 0
-4 -4 -4 -10z"/>
<path d="M0 10515 l0 -105 1690 0 1690 0 0 -495 0 -495 -1690 0 -1690 0 0
-105 0 -105 3365 0 3365 0 0 705 0 705 -3365 0 -3365 0 0 -105z m3728 -137
c16 -16 15 -28 -3 -28 -8 0 -15 5 -15 11 0 6 -10 9 -22 7 -34 -5 -28 -20 12
-33 60 -20 48 -75 -16 -75 -23 0 -37 6 -44 20 -12 23 0 27 29 8 20 -12 51 -5
51 11 0 6 -12 14 -27 17 -37 9 -53 22 -53 44 0 10 6 21 13 23 23 10 63 7 75
-5z m662 2 c0 -5 -4 -10 -10 -10 -5 0 -10 5 -10 10 0 6 5 10 10 10 6 0 10 -4
10 -10z m180 -5 c0 -9 9 -15 25 -15 32 0 46 -33 33 -72 -8 -23 -16 -28 -44
-28 l-34 0 0 65 c0 37 4 65 10 65 6 0 10 -7 10 -15z m160 5 c0 -5 -4 -10 -10
-10 -5 0 -10 5 -10 10 0 6 5 10 10 10 6 0 10 -4 10 -10z m140 -4 c0 -9 12 -16
28 -18 25 -3 27 -7 30 -50 4 -56 -15 -66 -20 -11 -2 27 -8 39 -20 41 -15 3
-18 -4 -18 -37 0 -23 -4 -41 -10 -41 -6 0 -10 28 -10 65 0 37 4 65 10 65 6 0
10 -6 10 -14z m100 0 c0 -8 6 -17 13 -20 10 -5 10 -7 0 -12 -15 -7 -18 -64 -3
-64 6 0 10 -4 10 -10 0 -5 -9 -10 -19 -10 -15 0 -20 9 -23 48 -2 26 -2 55 0
65 5 20 22 23 22 3z m390 4 c0 -5 -4 -10 -10 -10 -5 0 -10 5 -10 10 0 6 5 10
10 10 6 0 10 -4 10 -10z m40 -4 c0 -8 6 -17 13 -20 10 -5 10 -7 0 -12 -15 -7
-18 -64 -3 -64 6 0 10 -4 10 -10 0 -5 -9 -10 -19 -10 -15 0 -20 9 -23 48 -2
26 -2 55 0 65 5 20 22 23 22 3z m50 0 c0 -9 12 -16 28 -18 25 -3 27 -7 30 -50
4 -56 -15 -66 -20 -11 -2 27 -8 39 -20 41 -15 3 -18 -4 -18 -37 0 -23 -4 -41
-10 -41 -6 0 -10 28 -10 65 0 37 4 65 10 65 6 0 10 -6 10 -14z m180 4 c0 -5
-8 -10 -17 -10 -16 0 -16 -2 -3 -11 11 -8 12 -12 3 -16 -8 -2 -13 -22 -13 -44
0 -21 -4 -39 -9 -39 -12 0 -20 91 -9 113 9 18 48 24 48 7z m330 -4 c0 -8 6
-17 13 -20 10 -5 10 -7 0 -12 -15 -7 -18 -64 -3 -64 6 0 10 -4 10 -10 0 -5 -9
-10 -19 -10 -15 0 -20 9 -23 48 -2 26 -2 55 0 65 5 20 22 23 22 3z m310 0 c0
-8 6 -17 13 -20 10 -5 10 -7 0 -12 -7 -3 -13 -18 -13 -33 0 -24 4 -26 40 -27
22 -1 40 2 40 7 0 5 -6 9 -13 9 -7 0 -22 6 -32 14 -17 12 -17 16 -5 30 15 19
61 18 68 -2 3 -9 -3 -11 -24 -6 -19 5 -25 4 -20 -5 4 -6 13 -11 20 -11 8 0 19
-7 26 -15 10 -12 10 -18 0 -30 -15 -18 -70 -20 -71 -2 0 10 -2 10 -6 0 -2 -7
-13 -13 -23 -13 -14 0 -19 10 -22 48 -2 26 -2 55 0 65 5 20 22 23 22 3z m206
6 c20 -13 12 -39 -12 -39 -35 0 -39 42 -4 46 3 0 10 -3 16 -7z m-2696 -63 c0
-33 3 -40 18 -37 12 2 18 14 20 41 5 55 22 45 22 -14 l0 -50 -37 3 c-38 3 -38
3 -41 51 -2 28 1 47 7 47 6 0 11 -18 11 -41z m208 -11 c2 -29 -1 -48 -7 -48
-6 0 -11 18 -11 40 0 29 -4 40 -15 40 -11 0 -15 -11 -15 -40 0 -29 -4 -40 -15
-40 -11 0 -15 11 -15 40 0 29 -4 40 -15 40 -11 0 -15 -11 -15 -40 0 -22 -4
-40 -10 -40 -5 0 -10 23 -10 50 l0 50 63 -2 62 -3 3 -47z m150 0 c2 -29 -1
-48 -7 -48 -6 0 -11 18 -11 40 0 29 -4 40 -15 40 -11 0 -15 -11 -15 -40 0 -29
-4 -40 -15 -40 -11 0 -15 11 -15 40 0 29 -4 40 -15 40 -11 0 -15 -11 -15 -40
0 -22 -4 -40 -10 -40 -5 0 -10 23 -10 50 l0 50 63 -2 62 -3 3 -47z m103 25 c8
-21 5 -23 -26 -23 -26 0 -35 -4 -35 -16 0 -13 7 -15 31 -10 22 4 29 2 27 -7
-3 -6 -19 -13 -36 -15 -26 -3 -34 1 -44 22 -18 41 3 78 43 74 22 -2 34 -10 40
-25z m69 17 c0 -5 -7 -10 -15 -10 -11 0 -15 -11 -15 -40 0 -22 -4 -40 -10 -40
-5 0 -10 23 -10 50 0 47 2 50 25 50 14 0 25 -4 25 -10z m80 -40 c0 -27 -4 -50
-10 -50 -5 0 -10 23 -10 50 0 28 5 50 10 50 6 0 10 -22 10 -50z m88 32 c3 -9
-3 -11 -24 -6 -19 5 -25 4 -20 -5 4 -6 13 -11 20 -11 8 0 19 -7 26 -15 10 -12
10 -18 0 -30 -17 -20 -66 -19 -74 1 -5 13 -1 14 24 9 19 -4 30 -3 30 4 0 6 -6
11 -13 11 -7 0 -22 6 -32 14 -17 12 -17 16 -5 30 15 19 61 18 68 -2z m222 8
c0 -5 -7 -10 -15 -10 -11 0 -15 -11 -15 -40 0 -22 -4 -40 -10 -40 -5 0 -10 23
-10 50 0 47 2 50 25 50 14 0 25 -4 25 -10z m30 -40 c0 -27 -4 -50 -10 -50 -5
0 -10 23 -10 50 0 28 5 50 10 50 6 0 10 -22 10 -50z m100 -8 c0 -32 -5 -63
-12 -70 -17 -17 -53 -15 -69 4 -12 15 -10 16 18 10 18 -4 34 -3 38 3 4 7 -4
11 -20 11 -34 0 -53 39 -37 75 9 20 19 25 47 25 l35 0 0 -58z m251 31 c8 -21
5 -23 -26 -23 -26 0 -35 -4 -35 -16 0 -13 7 -15 31 -10 22 4 29 2 27 -7 -3 -6
-19 -13 -36 -15 -26 -3 -34 1 -44 22 -18 41 3 78 43 74 22 -2 34 -10 40 -25z
m69 17 c0 -5 -7 -10 -15 -10 -11 0 -15 -11 -15 -40 0 -22 -4 -40 -10 -40 -5 0
-10 23 -10 50 0 47 2 50 25 50 14 0 25 -4 25 -10z m78 -22 l9 -33 7 33 c8 34
36 45 36 13 0 -11 5 -23 10 -26 6 -3 10 3 10 14 0 19 17 38 26 29 2 -3 -2 -24
-9 -49 -14 -49 -37 -58 -48 -19 l-6 25 -8 -27 c-11 -42 -31 -34 -44 16 -13 54
-13 56 -1 56 5 0 13 -15 18 -32z m132 -18 c0 -27 -4 -50 -10 -50 -5 0 -10 23
-10 50 0 28 5 50 10 50 6 0 10 -22 10 -50z m320 40 c0 -5 -7 -10 -15 -10 -11
0 -15 -11 -15 -40 0 -22 -4 -40 -10 -40 -5 0 -10 23 -10 50 0 47 2 50 25 50
14 0 25 -4 25 -10z m89 -12 l8 -22 12 22 c17 31 70 27 82 -5 8 -21 5 -23 -26
-23 -26 0 -35 -4 -35 -16 0 -13 7 -15 31 -10 22 4 29 2 27 -7 -3 -6 -19 -13
-36 -15 -26 -3 -34 1 -44 22 -9 20 -18 26 -45 26 -24 0 -33 -4 -33 -16 0 -13
7 -15 31 -10 22 4 29 2 27 -7 -3 -6 -19 -13 -36 -15 -26 -3 -34 1 -44 22 -17
40 3 76 42 76 22 0 33 -6 39 -22z m271 12 c0 -5 -7 -10 -15 -10 -11 0 -15 -11
-15 -40 0 -22 -4 -40 -10 -40 -5 0 -10 23 -10 50 0 47 2 50 25 50 14 0 25 -4
25 -10z m91 -17 c8 -21 5 -23 -26 -23 -26 0 -35 -4 -35 -16 0 -13 7 -15 31
-10 22 4 29 2 27 -7 -3 -6 -19 -13 -36 -15 -26 -3 -34 1 -44 22 -18 41 3 78
43 74 22 -2 34 -10 40 -25z m97 -26 l3 -48 -43 3 c-35 2 -43 7 -43 23 0 14 10
23 34 31 21 7 29 14 22 18 -6 4 -20 4 -31 1 -11 -4 -20 -2 -20 3 0 16 14 23
45 20 28 -3 30 -6 33 -51z m192 -37 c0 -5 -7 -10 -15 -10 -8 0 -15 5 -15 10 0
6 7 10 15 10 8 0 15 -4 15 -10z m-361 -478 c55 -27 76 -64 76 -132 0 -68 -21
-105 -76 -132 -32 -17 -100 -18 -994 -18 -894 0 -962 1 -994 18 -55 27 -76 64
-76 132 0 68 21 105 76 132 32 17 100 18 994 18 894 0 962 -1 994 -18z"/>
<path d="M4570 10309 c0 -24 4 -30 18 -27 10 2 18 14 20 31 3 22 -1 27 -17 27
-17 0 -21 -6 -21 -31z"/>
<path d="M4188 10333 c6 -2 18 -2 25 0 6 3 1 5 -13 5 -14 0 -19 -2 -12 -5z"/>
<path d="M4767 10325 c-9 -22 3 -46 22 -43 10 2 16 13 16 28 0 28 -29 40 -38
15z"/>
<path d="M5028 10333 c6 -2 18 -2 25 0 6 3 1 5 -13 5 -14 0 -19 -2 -12 -5z"/>
<path d="M5718 10333 c6 -2 18 -2 25 0 6 3 1 5 -13 5 -14 0 -19 -2 -12 -5z"/>
<path d="M5818 10333 c6 -2 18 -2 25 0 6 3 1 5 -13 5 -14 0 -19 -2 -12 -5z"/>
<path d="M6078 10333 c6 -2 18 -2 25 0 6 3 1 5 -13 5 -14 0 -19 -2 -12 -5z"/>
<path d="M6170 10290 c0 -5 6 -10 14 -10 8 0 18 5 21 10 3 6 -3 10 -14 10 -12
0 -21 -4 -21 -10z"/>
<path d="M4081 9782 c-52 -26 -76 -65 -76 -122 0 -57 24 -96 76 -122 32 -17
99 -18 984 -18 885 0 952 1 984 18 52 26 76 65 76 122 0 57 -24 96 -76 122
-32 17 -99 18 -984 18 -885 0 -952 -1 -984 -18z m187 -109 c-3 -54 -5 -58 -29
-61 -18 -2 -29 3 -33 14 -9 24 3 32 18 11 21 -28 26 -20 26 38 0 32 4 55 10
55 7 0 10 -22 8 -57z m362 42 c7 -8 16 -15 21 -15 5 0 9 7 9 15 0 18 20 20 21
3 4 -90 3 -108 -8 -108 -8 0 -13 14 -13 38 0 33 -4 40 -35 56 -27 15 -38 17
-47 8 -14 -14 -3 -28 26 -34 28 -5 43 -33 27 -52 -17 -20 -65 -21 -81 -1 -10
12 -10 15 4 15 9 0 16 -5 16 -11 0 -14 42 -7 48 9 2 7 -12 19 -32 27 -34 14
-47 41 -29 58 12 13 60 7 73 -8z m230 0 c0 -8 8 -15 18 -15 24 0 42 -19 42
-45 0 -29 -19 -45 -52 -45 -26 0 -28 3 -28 40 0 29 -4 40 -15 40 -11 0 -15
-11 -15 -40 0 -22 -4 -40 -10 -40 -5 0 -10 20 -10 45 0 41 2 45 25 45 16 0 25
6 25 15 0 8 5 15 10 15 6 0 10 -7 10 -15z m260 -12 c0 -21 3 -24 12 -15 7 7
19 12 27 12 12 0 12 -3 -2 -17 -22 -25 -2 -58 35 -58 34 0 47 12 22 21 -35 13
-45 25 -33 40 14 17 45 18 55 3 4 -8 0 -9 -15 -4 -30 9 -27 -13 4 -25 14 -5
25 -13 25 -17 -1 -38 -90 -45 -116 -9 -14 20 -14 20 -14 -2 0 -12 -4 -22 -10
-22 -6 0 -10 27 -10 60 0 33 4 60 10 60 6 0 10 -12 10 -27z m275 7 c4 -12 1
-27 -5 -35 -10 -12 -9 -20 4 -40 13 -20 14 -25 2 -25 -7 0 -21 11 -30 25 -9
14 -21 25 -26 25 -6 0 -10 -11 -10 -25 0 -16 -6 -25 -15 -25 -12 0 -15 13 -15
60 l0 60 44 0 c36 0 46 -4 51 -20z m445 -40 c0 -59 0 -60 -28 -60 -33 0 -52
16 -52 45 0 26 18 45 42 45 10 0 18 7 18 15 0 8 5 15 10 15 6 0 10 -27 10 -60z
m-1479 9 c16 -31 -3 -69 -36 -69 -17 0 -29 8 -36 24 -15 32 4 66 36 66 15 0
29 -9 36 -21z m39 -24 c0 -25 -4 -45 -10 -45 -5 0 -10 20 -10 45 0 25 5 45 10
45 6 0 10 -20 10 -45z m84 29 c10 -25 7 -74 -4 -74 -5 0 -10 15 -10 34 0 38
-17 57 -31 35 -5 -8 -9 -26 -9 -41 0 -16 -4 -28 -10 -28 -5 0 -10 20 -10 45 0
44 0 45 34 45 22 0 36 -6 40 -16z m287 -31 l5 -43 -37 0 c-54 0 -62 38 -11 54
12 4 22 12 22 17 0 14 -28 11 -33 -3 -2 -7 -8 -10 -12 -6 -14 13 7 29 33 26
23 -3 28 -9 33 -45z m179 6 c0 -52 24 -48 28 4 5 53 22 46 22 -9 0 -45 0 -45
-32 -42 -31 3 -33 6 -36 46 -2 25 1 42 7 42 6 0 11 -18 11 -41z m135 31 c4 -7
-2 -9 -18 -5 -19 5 -26 2 -29 -12 -8 -37 3 -55 29 -48 16 4 22 2 18 -5 -3 -5
-17 -10 -31 -10 -32 0 -51 38 -35 69 12 22 55 29 66 11z m405 -9 c15 -28 13
-31 -20 -31 -30 0 -40 -13 -19 -26 6 -3 15 0 20 7 4 7 11 10 14 7 12 -12 -6
-28 -31 -28 -32 0 -51 38 -35 69 15 27 57 28 71 2z m35 -8 l8 -28 6 24 c9 33
27 37 36 9 l8 -23 4 23 c5 24 23 31 23 8 0 -23 -21 -76 -31 -76 -5 0 -12 12
-16 28 l-7 27 -6 -24 c-9 -39 -28 -36 -39 6 -13 46 -13 53 -2 53 5 0 12 -12
16 -27z m173 -21 l3 -43 -38 3 c-51 4 -58 33 -12 52 21 9 27 16 19 21 -6 4
-17 2 -23 -4 -17 -17 -31 -13 -17 5 8 8 25 14 39 12 23 -3 26 -8 29 -46z m50
37 c-12 -6 -18 -22 -18 -44 0 -19 -4 -35 -10 -35 -5 0 -10 20 -10 45 0 42 2
45 28 45 23 -1 24 -2 10 -11z m167 1 c4 -7 -2 -9 -19 -4 -34 8 -35 -13 0 -26
16 -7 24 -16 22 -28 -4 -20 -45 -29 -62 -12 -8 9 -4 10 17 5 35 -9 37 12 2 25
-24 9 -32 29 -18 43 10 11 51 8 58 -3z"/>
<path d="M4864 9676 c-9 -23 0 -51 16 -51 10 0 15 10 15 29 0 32 -21 47 -31
22z"/>
<path d="M5330 9695 c0 -22 4 -26 23 -23 14 2 22 10 22 23 0 13 -8 21 -22 23
-19 3 -23 -1 -23 -23z"/>
<path d="M5784 9676 c-8 -21 -1 -49 13 -53 6 -2 14 5 17 15 12 36 -17 72 -30
38z"/>
<path d="M4311 9672 c-10 -18 2 -52 19 -52 12 0 22 34 14 54 -8 21 -21 20 -33
-2z"/>
<path d="M4726 9647 c-14 -10 -16 -16 -7 -22 15 -9 35 8 30 24 -3 8 -10 7 -23
-2z"/>
<path d="M5447 9683 c-13 -12 -7 -23 13 -23 13 0 18 5 14 15 -7 16 -17 19 -27
8z"/>
<path d="M5658 9652 c-21 -4 -24 -32 -4 -32 8 0 17 7 20 16 8 20 6 21 -16 16z"/>
<path d="M1066 10282 c-6 -10 -19 -12 -42 -8 -20 4 -53 0 -84 -10 -49 -16 -50
-17 -34 -35 16 -18 16 -19 -9 -19 -14 0 -29 5 -32 10 -3 6 -10 10 -14 10 -12
0 -20 -35 -12 -48 11 -19 65 -35 108 -33 25 1 45 -4 50 -11 11 -18 102 -63
110 -55 3 4 0 7 -8 7 -11 0 -11 2 1 10 8 5 30 7 48 4 19 -4 32 -2 32 4 0 6 9
8 20 5 16 -4 20 -1 19 18 0 13 -3 18 -6 12 -8 -22 -18 -14 -19 15 -1 24 -49
87 -72 93 -4 1 -15 4 -24 7 -9 2 -18 11 -20 21 -3 13 -5 13 -12 3z m-34 -25
c7 -8 19 -12 26 -9 8 2 16 -6 19 -18 4 -14 8 -18 13 -10 5 7 16 9 29 5 18 -5
20 -9 10 -21 -9 -11 -8 -14 7 -14 17 -1 17 -2 2 -10 -25 -15 -143 -26 -134
-12 3 6 -2 15 -11 21 -16 9 -16 10 4 11 12 0 25 -4 28 -10 3 -5 20 -10 36 -10
18 0 28 4 24 10 -12 20 -79 41 -112 35 -24 -4 -31 -2 -27 9 5 14 40 34 61 35
6 1 18 -5 25 -12z m-69 -64 c-7 -2 -19 -2 -25 0 -7 3 -2 5 12 5 14 0 19 -2 13
-5z m220 -43 c-3 -11 -14 -20 -24 -20 -26 0 -24 19 4 30 12 5 23 9 24 9 0 1
-1 -8 -4 -19z m-73 -10 c0 -20 -24 -26 -60 -16 -22 5 -40 13 -40 16 0 3 23 5
50 5 28 0 50 -2 50 -5z"/>
<path d="M795 10160 c-3 -5 5 -20 17 -33 33 -33 143 -47 167 -21 15 15 14 15
-8 4 -19 -10 -25 -9 -31 0 -5 7 -16 10 -25 6 -32 -12 -86 5 -95 30 -10 26 -16
29 -25 14z"/>
<path d="M1110 10044 c-41 -8 -102 -14 -135 -13 -91 3 -94 2 -91 -25 1 -14 8
-32 16 -40 7 -9 8 -16 3 -16 -5 0 -10 -7 -10 -15 0 -8 8 -13 18 -12 10 1 18
-2 19 -8 1 -5 6 -16 12 -22 7 -9 7 -17 -2 -28 -6 -8 -13 -26 -14 -40 -3 -20
-1 -23 10 -14 8 6 14 22 14 36 0 15 8 26 22 32 21 8 21 8 -3 15 l-24 7 23 11
c12 6 22 15 22 20 0 4 9 8 20 8 11 0 20 -4 20 -9 0 -5 9 -11 21 -14 23 -6 17
-27 -7 -27 -8 0 -14 -7 -14 -15 0 -8 6 -15 13 -15 22 0 -17 -20 -40 -20 -13 0
-23 -5 -23 -11 0 -6 8 -8 19 -4 25 8 48 -20 31 -40 -6 -8 -9 -23 -5 -35 5 -16
2 -20 -15 -20 -12 0 -18 4 -15 10 4 6 3 24 0 42 -5 21 -10 27 -15 17 -5 -7 -5
-20 -1 -28 18 -34 0 -41 -37 -16 -37 25 -37 25 -40 4 -3 -15 -9 -20 -23 -16
-28 8 -23 -13 15 -58 27 -32 41 -40 67 -40 29 0 34 -3 31 -23 -3 -18 2 -22 23
-22 37 0 121 56 134 89 5 14 17 92 26 174 8 81 20 159 25 172 11 29 14 29 -90
9z m17 -181 c-8 -7 -47 7 -47 17 0 15 35 17 43 2 5 -7 7 -16 4 -19z m-32 -73
c3 -5 1 -10 -4 -10 -6 0 -11 5 -11 10 0 6 2 10 4 10 3 0 8 -4 11 -10z"/>
<path d="M1713 10034 c-21 -9 -16 -55 7 -61 25 -7 27 -24 3 -20 -10 1 -20 -2
-23 -8 -3 -6 11 -11 31 -13 59 -5 77 41 26 66 l-22 11 23 0 c31 1 23 25 -9 28
-13 1 -30 -1 -36 -3z"/>
<path d="M1807 10034 c-13 -13 -7 -24 13 -24 17 0 20 -7 20 -40 0 -33 3 -40
20 -40 17 0 20 7 20 40 0 30 4 40 16 40 9 0 14 6 12 13 -5 13 -89 22 -101 11z"/>
<path d="M1953 10028 c-15 -19 -36 -88 -29 -96 4 -3 16 -1 26 6 24 15 50 16
50 2 0 -5 9 -10 20 -10 11 0 20 1 20 3 0 1 -9 25 -19 52 -19 52 -47 69 -68 43z"/>
<path d="M2070 9985 c0 -42 3 -55 15 -55 8 0 15 7 15 17 0 15 1 15 18 0 24
-22 60 -24 43 -3 -9 11 -9 20 -2 35 14 25 14 27 -5 45 -8 9 -31 16 -50 16
l-34 0 0 -55z m55 15 c3 -5 -1 -10 -9 -10 -9 0 -16 5 -16 10 0 6 4 10 9 10 6
0 13 -4 16 -10z"/>
<path d="M2207 10033 c-4 -3 -7 -28 -7 -55 l0 -49 48 3 47 3 2 40 c1 27 -4 44
-15 53 -17 13 -64 16 -75 5z m53 -33 c0 -5 -4 -10 -10 -10 -5 0 -10 5 -10 10
0 6 5 10 10 10 6 0 10 -4 10 -10z m0 -40 c0 -5 -4 -10 -10 -10 -5 0 -10 5 -10
10 0 6 5 10 10 10 6 0 10 -4 10 -10z"/>
<path d="M2330 9998 c0 -52 13 -68 57 -68 38 0 56 25 51 73 -4 47 -32 43 -36
-5 -4 -51 -30 -51 -34 -1 -2 27 -8 39 -20 41 -15 3 -18 -4 -18 -40z"/>
<path d="M2492 10033 c-25 -10 -34 -53 -17 -79 18 -28 85 -35 85 -9 0 9 -9 15
-24 15 -14 0 -27 4 -30 9 -11 18 6 41 31 41 15 0 23 5 21 13 -5 13 -44 19 -66
10z"/>
<path d="M2597 10033 c-4 -3 -7 -28 -7 -55 0 -41 3 -48 20 -48 12 0 20 7 20
18 1 16 1 16 14 0 13 -18 46 -25 46 -10 0 4 -7 16 -15 26 -13 17 -13 22 0 42
8 13 15 26 15 29 0 11 -24 4 -42 -12 -17 -15 -18 -15 -18 0 0 17 -21 23 -33
10z"/>
<path d="M2732 10028 c-20 -20 -14 -47 13 -54 14 -3 25 -11 25 -16 0 -6 -11
-7 -25 -4 -19 5 -25 2 -25 -9 0 -13 9 -15 43 -13 34 2 43 7 45 25 2 15 -5 26
-25 37 -26 14 -26 15 -6 16 27 0 38 16 17 24 -25 9 -49 7 -62 -6z"/>
<path d="M970 9859 c0 -5 5 -7 10 -4 6 3 10 8 10 11 0 2 -4 4 -10 4 -5 0 -10
-5 -10 -11z"/>
<path d="M1860 9821 c0 -23 5 -41 10 -41 6 0 10 5 10 12 0 9 3 9 12 0 19 -19
23 -15 23 26 0 33 -3 37 -27 40 -27 3 -28 1 -28 -37z m40 9 c0 -5 -4 -10 -10
-10 -5 0 -10 5 -10 10 0 6 5 10 10 10 6 0 10 -4 10 -10z"/>
<path d="M1970 9820 c0 -37 2 -40 27 -40 26 0 26 1 7 15 -17 13 -17 14 -1 15
22 0 23 20 0 20 -15 0 -14 2 3 15 18 14 18 14 -8 15 -26 0 -28 -3 -28 -40z"/>
<path d="M2074 9844 c3 -9 9 -27 12 -40 8 -30 30 -31 38 -1 l7 22 11 -23 c15
-30 29 -24 44 21 14 40 0 54 -15 15 l-8 -22 -12 22 c-15 28 -27 28 -35 0 l-7
-23 -11 23 c-12 25 -33 31 -24 6z"/>
<path d="M2242 9823 c-13 -43 -9 -51 14 -32 13 11 18 11 21 2 3 -7 11 -13 18
-13 11 0 10 8 -2 40 -20 50 -36 51 -51 3z"/>
<path d="M2350 9820 c0 -39 12 -53 24 -27 5 10 7 10 12 0 8 -18 27 -16 21 1
-3 7 -1 18 5 24 18 18 1 42 -32 42 -28 0 -30 -2 -30 -40z m45 10 c-3 -5 -10
-10 -16 -10 -5 0 -9 5 -9 10 0 6 7 10 16 10 8 0 12 -4 9 -10z"/>
<path d="M2470 9819 c0 -39 1 -40 33 -37 25 2 33 8 35 26 5 30 -14 52 -44 52
-21 0 -24 -5 -24 -41z m50 2 c0 -10 -7 -21 -15 -25 -11 -4 -15 1 -15 19 0 16
6 25 15 25 8 0 15 -9 15 -19z"/>
<path d="M2590 9840 c0 -11 7 -23 15 -26 8 -4 15 -11 15 -16 0 -6 -7 -8 -15
-4 -8 3 -15 1 -15 -3 0 -17 28 -20 47 -5 17 13 17 15 -4 33 -26 22 -30 33 -8
25 8 -4 15 -1 15 5 0 6 -11 11 -25 11 -18 0 -25 -5 -25 -20z"/>
<path d="M952 9789 c-7 -12 -11 -24 -8 -27 3 -3 6 -2 6 3 0 4 7 1 17 -6 15
-13 15 -12 6 6 -6 11 -8 26 -6 33 7 19 -1 14 -15 -9z"/>
<path d="M1300 9579 l-35 -31 30 7 c31 7 65 31 65 47 0 16 -26 7 -60 -23z"/>
<path d="M1110 9580 c-12 -8 -12 -10 5 -9 11 0 29 4 40 9 18 8 18 9 -5 9 -14
0 -32 -4 -40 -9z"/>
<path d="M693 8506 c-54 -25 -69 -82 -33 -128 13 -18 41 -31 87 -43 87 -23 99
-30 106 -56 9 -32 -33 -69 -78 -69 -48 0 -93 25 -101 55 -8 33 -44 35 -44 2 0
-100 192 -134 254 -45 45 64 0 125 -112 152 -78 20 -101 40 -83 75 13 23 32
31 75 31 36 0 76 -24 76 -46 0 -8 10 -14 25 -14 33 0 32 22 -3 61 -24 27 -37
33 -83 36 -33 2 -66 -2 -86 -11z"/>
<path d="M2460 8495 c0 -16 6 -25 16 -25 15 0 15 -2 1 -24 -20 -29 -10 -42 15
-19 11 10 18 30 18 55 0 34 -3 38 -25 38 -20 0 -25 -5 -25 -25z"/>
<path d="M952 8328 c6 -119 10 -131 44 -147 34 -15 59 -14 94 4 27 14 30 14
30 0 0 -8 9 -15 20 -15 19 0 20 7 20 130 l0 130 -25 0 c-25 0 -25 0 -25 -94 0
-105 -10 -126 -59 -126 -44 0 -51 15 -51 122 l0 98 -26 0 -27 0 5 -102z"/>
<path d="M1220 8300 c0 -120 1 -130 19 -130 16 0 19 11 23 88 6 109 17 132 62
132 43 0 46 -9 46 -126 0 -87 1 -94 20 -94 18 0 20 7 20 83 0 98 14 131 55
135 45 6 55 -18 55 -125 0 -86 1 -93 20 -93 19 0 20 7 20 105 0 99 -2 107 -25
130 -29 30 -73 33 -105 7 -23 -18 -24 -18 -42 0 -22 22 -76 24 -106 2 -20 -14
-22 -14 -22 0 0 9 -9 16 -20 16 -19 0 -20 -7 -20 -130z"/>
<path d="M1620 8300 c0 -120 1 -130 19 -130 16 0 19 11 23 88 6 109 17 132 62
132 43 0 46 -9 46 -126 0 -87 1 -94 20 -94 18 0 20 7 20 83 0 98 14 131 55
135 45 6 55 -18 55 -125 0 -86 1 -93 20 -93 19 0 20 7 20 105 0 99 -2 107 -25
130 -29 30 -73 33 -105 7 -23 -18 -24 -18 -42 0 -22 22 -76 24 -106 2 -20 -14
-22 -14 -22 0 0 9 -9 16 -20 16 -19 0 -20 -7 -20 -130z"/>
<path d="M2064 8411 c-40 -25 -58 -69 -52 -132 7 -68 38 -100 105 -106 42 -5
53 -2 81 22 34 28 43 65 16 65 -9 0 -25 -11 -36 -25 -36 -46 -104 -29 -122 33
-7 22 -6 22 88 22 90 0 96 1 96 20 0 92 -98 149 -176 101z m108 -38 c35 -32
23 -43 -47 -43 -69 0 -79 8 -48 42 20 22 70 23 95 1z"/>
<path d="M2290 8300 c0 -123 1 -130 20 -130 18 0 20 7 20 83 0 101 13 131 58
135 25 3 32 8 30 20 -4 23 -51 27 -72 7 -14 -15 -16 -15 -16 -1 0 9 -8 16 -20
16 -19 0 -20 -7 -20 -130z"/>
<path d="M2586 8409 c-26 -21 -34 -60 -17 -87 5 -8 37 -24 72 -36 43 -15 65
-28 67 -40 9 -43 -75 -51 -107 -10 -13 16 -27 24 -36 20 -23 -8 -18 -24 15
-58 28 -28 35 -30 81 -26 61 6 92 33 92 78 0 40 -8 47 -84 73 -50 17 -64 26
-64 42 0 16 8 21 43 23 37 3 44 0 49 -17 5 -20 32 -28 46 -15 11 11 -15 52
-40 63 -38 17 -88 13 -117 -10z"/>
<path d="M3381 7848 c-1 -106 3 -168 9 -168 6 0 10 -9 10 -20 0 -11 9 -25 20
-32 11 -7 20 -19 20 -27 0 -7 11 -24 25 -37 14 -13 25 -29 25 -37 0 -8 9 -22
20 -32 11 -10 20 -23 20 -28 0 -5 13 -22 28 -37 15 -14 38 -41 51 -58 25 -36
71 -47 49 -13 -7 11 -20 22 -30 24 -10 3 -22 17 -28 31 -5 15 -23 39 -38 54
-16 16 -32 39 -35 53 -3 13 -16 29 -29 34 -13 6 -22 17 -20 24 1 7 -9 22 -23
33 -14 11 -22 24 -19 30 3 5 -3 16 -15 24 -37 26 -22 84 22 84 24 0 54 29 40
38 -6 4 -14 22 -18 40 -3 18 -15 37 -26 42 -11 7 -19 21 -19 37 0 14 -3 23 -7
19 -5 -4 -13 14 -20 41 -10 43 -11 30 -12 -119z"/>
<path d="M290 7795 c0 -168 1 -175 20 -175 11 0 20 7 20 16 0 14 2 14 22 0 90
-63 192 63 144 178 -26 61 -94 85 -144 50 l-22 -15 0 60 c0 54 -2 61 -20 61
-19 0 -20 -7 -20 -175z m154 26 c23 -26 25 -102 2 -135 -16 -26 -57 -35 -82
-18 -38 25 -45 105 -13 146 25 31 68 35 93 7z"/>
<path d="M720 7945 c0 -18 5 -25 20 -25 15 0 20 7 20 25 0 18 -5 25 -20 25
-15 0 -20 -7 -20 -25z"/>
<path d="M1090 7795 c0 -168 1 -175 20 -175 18 0 20 7 20 68 0 74 13 131 32
144 19 12 62 10 76 -4 8 -8 12 -47 12 -110 l0 -98 26 0 27 0 -5 103 c-6 118
-10 130 -44 146 -34 15 -59 14 -94 -4 l-30 -16 0 61 c0 53 -2 60 -20 60 -19 0
-20 -7 -20 -175z"/>
<path d="M1388 7949 c-11 -6 -18 -22 -18 -39 0 -20 -5 -30 -15 -30 -8 0 -15
-9 -15 -20 0 -11 7 -20 15 -20 12 0 15 -18 15 -100 0 -108 6 -120 64 -120 34
0 34 27 1 40 -24 9 -25 13 -25 95 0 78 2 85 20 85 13 0 20 7 20 20 0 13 -7 20
-19 20 -16 0 -20 8 -23 39 -3 35 -5 38 -20 30z"/>
<path d="M2028 7949 c-11 -6 -18 -22 -18 -39 0 -20 -5 -30 -15 -30 -8 0 -15
-9 -15 -20 0 -11 7 -20 15 -20 12 0 15 -18 15 -100 0 -108 6 -120 64 -120 34
0 34 27 1 40 -24 9 -25 13 -25 95 0 78 2 85 20 85 13 0 20 7 20 20 0 13 -7 20
-19 20 -16 0 -20 8 -23 39 -3 35 -5 38 -20 30z"/>
<path d="M560 7750 c0 -123 1 -130 20 -130 18 0 20 7 20 83 0 101 13 131 58
135 25 3 32 8 30 20 -4 23 -51 27 -72 7 -14 -15 -16 -15 -16 -1 0 9 -8 16 -20
16 -19 0 -20 -7 -20 -130z"/>
<path d="M720 7750 c0 -123 1 -130 20 -130 19 0 20 7 20 130 0 123 -1 130 -20
130 -19 0 -20 -7 -20 -130z"/>
<path d="M850 7852 c-99 -100 8 -293 119 -215 l24 16 -6 -33 c-4 -18 -12 -39
-18 -47 -18 -20 -83 -16 -104 7 -23 25 -45 26 -45 2 0 -46 90 -77 151 -52 49
21 59 58 59 215 0 128 -1 135 -20 135 -11 0 -20 -7 -20 -16 0 -14 -2 -14 -22
0 -36 26 -85 20 -118 -12z m106 -20 c19 -12 34 -49 34 -82 0 -33 -15 -70 -34
-82 -21 -15 -63 -8 -82 13 -13 15 -19 36 -19 69 0 33 6 54 19 69 19 21 61 28
82 13z"/>
<path d="M1534 7861 c-40 -25 -58 -69 -52 -132 7 -68 38 -100 105 -106 42 -5
53 -2 81 22 34 28 43 65 16 65 -9 0 -25 -11 -36 -25 -36 -46 -104 -29 -122 33
-7 22 -6 22 88 22 90 0 96 1 96 20 0 92 -98 149 -176 101z m108 -38 c35 -32
23 -43 -47 -43 -69 0 -79 8 -48 42 20 22 70 23 95 1z"/>
<path d="M1790 7868 c-13 -8 -29 -25 -34 -40 -15 -43 13 -75 84 -95 32 -9 62
-23 65 -31 17 -45 -90 -59 -110 -14 -12 27 -45 30 -45 3 0 -68 125 -96 180
-41 25 25 26 72 3 93 -10 8 -44 23 -75 32 -64 18 -76 29 -58 50 19 23 77 19
92 -5 15 -23 48 -27 48 -6 0 8 -8 24 -18 36 -22 27 -95 37 -132 18z"/>
<path d="M2270 7750 c0 -123 1 -130 20 -130 18 0 20 7 20 88 0 105 13 132 65
132 47 0 55 -20 55 -129 0 -84 1 -91 20 -91 19 0 20 7 20 105 0 99 -2 107 -25
130 -28 29 -79 33 -113 9 -20 -14 -22 -14 -22 0 0 9 -9 16 -20 16 -19 0 -20
-7 -20 -130z"/>
<path d="M2582 7867 c-76 -44 -81 -183 -8 -228 37 -22 86 -24 125 -5 27 14 55
59 44 70 -10 10 -43 7 -43 -3 0 -19 -32 -41 -61 -41 -33 0 -69 31 -69 60 0 19
7 20 91 20 l92 0 -6 42 c-7 56 -42 89 -98 94 -26 3 -53 -1 -67 -9z m100 -39
c8 -7 18 -21 21 -30 6 -16 -1 -18 -63 -18 -39 0 -70 3 -70 8 0 4 7 18 16 30
17 25 70 30 96 10z"/>
<path d="M2773 7867 c2 -7 20 -66 38 -130 32 -111 35 -118 59 -115 21 3 26 12
45 85 11 45 23 84 26 87 3 4 11 -18 18 -47 25 -114 31 -127 54 -127 19 0 26
14 57 117 19 64 36 123 38 130 2 7 -5 13 -17 13 -15 0 -23 -12 -36 -57 -9 -32
-22 -76 -29 -98 l-13 -40 -23 98 c-22 87 -26 97 -47 97 -23 0 -25 -4 -54 -125
-6 -27 -15 -53 -19 -58 -3 -4 -17 35 -30 88 -22 87 -26 95 -48 95 -16 0 -22
-5 -19 -13z"/>
<path d="M3380 7496 c0 -22 11 -46 22 -46 14 0 35 -24 39 -45 2 -10 10 -20 18
-23 10 -3 11 0 5 9 -5 8 -7 22 -6 32 2 10 -3 17 -12 17 -9 0 -16 7 -16 15 0 8
-4 15 -9 15 -5 0 -13 9 -16 20 -7 23 -25 27 -25 6z"/>
<path d="M3638 7453 c7 -3 16 -2 19 1 4 3 -2 6 -13 5 -11 0 -14 -3 -6 -6z"/>
<path d="M1240 7359 l0 -60 -22 15 c-28 20 -61 20 -97 2 -36 -19 -51 -55 -51
-122 0 -50 3 -59 34 -90 36 -36 78 -44 117 -24 13 7 19 7 19 0 0 -5 9 -10 20
-10 19 0 20 7 20 175 0 168 -1 175 -20 175 -18 0 -20 -7 -20 -61z m-16 -91 c9
-12 16 -43 16 -68 0 -57 -22 -90 -60 -90 -51 0 -78 47 -67 116 8 48 23 64 63
64 23 0 38 -7 48 -22z"/>
<path d="M1510 7395 c0 -18 5 -25 20 -25 15 0 20 7 20 25 0 18 -5 25 -20 25
-15 0 -20 -7 -20 -25z"/>
<path d="M1880 7245 c0 -168 1 -175 20 -175 17 0 20 7 20 48 0 34 5 54 18 65
17 16 20 13 57 -48 30 -49 46 -65 63 -65 12 0 22 3 22 8 0 4 -22 41 -50 82
l-50 75 47 47 c44 45 46 48 23 48 -16 0 -43 -18 -77 -52 l-53 -52 0 97 c0 90
-1 97 -20 97 -19 0 -20 -7 -20 -175z"/>
<path d="M3480 7370 c0 -5 5 -10 10 -10 6 0 10 5 10 10 0 6 -4 10 -10 10 -5 0
-10 -4 -10 -10z"/>
<path d="M3497 7334 c-3 -4 1 -13 9 -22 14 -13 17 -13 25 -1 5 8 9 17 9 22 0
9 -34 10 -43 1z"/>
<path d="M1350 7200 c0 -123 1 -130 20 -130 18 0 20 7 20 84 0 109 9 134 51
138 18 2 34 9 37 15 6 19 -27 28 -59 16 -16 -7 -29 -7 -29 -2 0 5 -9 9 -20 9
-19 0 -20 -7 -20 -130z"/>
<path d="M1510 7200 c0 -123 1 -130 20 -130 19 0 20 7 20 130 0 123 -1 130
-20 130 -19 0 -20 -7 -20 -130z"/>
<path d="M1610 7200 c0 -123 1 -130 20 -130 18 0 20 7 20 68 0 74 13 131 32
144 19 12 62 10 76 -4 8 -8 12 -47 12 -110 0 -91 1 -98 20 -98 19 0 20 7 20
108 0 114 -3 122 -37 141 -29 15 -58 14 -93 -4 -27 -14 -30 -14 -30 0 0 8 -9
15 -20 15 -19 0 -20 -7 -20 -130z"/>
<path d="M2150 7318 c-13 -8 -29 -25 -34 -40 -15 -43 13 -75 84 -95 32 -9 62
-23 65 -31 17 -45 -90 -59 -110 -14 -12 27 -45 30 -45 3 0 -68 125 -96 180
-41 25 25 26 72 3 93 -10 8 -44 23 -75 32 -64 18 -76 29 -58 50 19 23 77 19
92 -5 15 -23 48 -27 48 -6 0 8 -8 24 -18 36 -22 27 -95 37 -132 18z"/>
<path d="M3660 7315 c0 -13 71 -75 80 -70 5 3 0 21 -11 40 -15 25 -28 35 -45
35 -13 0 -24 -2 -24 -5z"/>
<path d="M3550 7271 c0 -5 7 -11 14 -14 10 -4 13 -1 9 9 -6 15 -23 19 -23 5z"/>
<path d="M3596 7241 c-3 -5 1 -14 9 -21 11 -9 14 -8 12 9 -1 22 -12 28 -21 12z"/>
<path d="M3762 7218 c3 -7 14 -17 26 -23 12 -5 22 -16 22 -23 0 -17 25 -42 41
-42 6 0 32 -20 56 -45 24 -25 48 -45 54 -45 7 0 21 -10 32 -22 l20 -23 -7 34
c-3 18 -6 40 -6 48 0 9 -6 13 -15 9 -20 -7 -45 3 -45 19 0 6 -18 20 -40 30
-21 10 -56 35 -77 56 -37 38 -69 51 -61 27z"/>
<path d="M3630 7201 c0 -5 7 -16 15 -25 23 -22 20 -49 -5 -41 -11 4 -20 2 -20
-4 0 -6 -6 -11 -13 -11 -21 0 -109 -98 -130 -143 -10 -23 -21 -67 -26 -99 -7
-52 -6 -58 11 -58 14 0 18 8 18 33 0 59 37 139 87 189 27 26 54 47 61 48 6 0
12 4 12 8 0 5 12 14 26 20 20 10 28 9 40 -3 22 -21 24 -19 11 15 -6 17 -17 30
-24 30 -7 0 -13 3 -13 8 -1 11 -50 44 -50 33z"/>
<path d="M3980 7150 c0 -5 5 -10 10 -10 6 0 10 5 10 10 0 6 -4 10 -10 10 -5 0
-10 -4 -10 -10z"/>
<path d="M3390 7119 c0 -5 5 -7 10 -4 6 3 10 8 10 11 0 2 -4 4 -10 4 -5 0 -10
-5 -10 -11z"/>
<path d="M3755 7068 c-3 -8 -25 -21 -48 -29 -65 -21 -147 -128 -147 -193 0
-44 21 -106 37 -106 7 0 13 -9 13 -20 0 -11 6 -20 14 -20 8 0 16 -6 19 -12 2
-7 8 -10 12 -5 5 4 -1 17 -13 30 -29 31 -46 103 -38 157 8 55 47 103 107 130
56 25 91 25 109 0 8 -11 20 -20 27 -20 22 0 80 -63 88 -95 13 -53 9 -81 -21
-139 -18 -36 -34 -56 -46 -56 -10 0 -18 -4 -18 -10 0 -5 -9 -10 -20 -10 -11 0
-20 -4 -20 -10 0 -5 -11 -10 -25 -10 -18 0 -23 -4 -19 -15 7 -17 64 -21 64 -5
0 6 7 10 15 10 8 0 24 8 34 18 11 9 26 22 33 29 42 38 68 99 68 159 0 48 6 53
26 27 12 -16 13 -16 14 -2 0 9 -12 22 -27 29 -34 17 -73 50 -73 62 0 13 -21
33 -42 41 -10 3 -18 11 -18 16 0 6 -7 8 -15 5 -8 -4 -15 -1 -15 5 0 6 -7 11
-16 11 -9 0 -25 10 -35 21 -15 18 -20 19 -24 7z"/>
<path d="M4010 6670 c0 -19 -70 -81 -117 -103 -36 -16 -47 -27 -45 -40 4 -20
7 -20 84 16 27 12 48 27 48 33 0 6 11 16 25 22 20 9 25 19 25 47 0 19 -4 35
-10 35 -5 0 -10 -4 -10 -10z"/>
<path d="M680 6565 c0 -37 4 -65 10 -65 6 0 10 28 10 65 0 37 -4 65 -10 65 -6
0 -10 -28 -10 -65z"/>
<path d="M834 6617 c-5 -9 -7 -38 -4 -64 4 -38 9 -49 25 -51 16 -3 18 -1 8 9
-16 17 -17 61 -1 77 8 8 9 12 1 12 -6 0 -13 8 -15 18 -4 16 -4 16 -14 -1z"/>
<path d="M1100 6611 c0 -14 -6 -17 -25 -13 -20 3 -27 -1 -35 -22 -17 -45 4
-76 53 -76 27 0 27 1 27 65 0 37 -4 65 -10 65 -5 0 -10 -8 -10 -19z m-5 -61
c0 -16 -6 -26 -18 -28 -19 -4 -32 20 -23 44 9 25 41 13 41 -16z"/>
<path d="M1330 6620 c0 -5 5 -10 10 -10 6 0 10 5 10 10 0 6 -4 10 -10 10 -5 0
-10 -4 -10 -10z"/>
<path d="M1624 6617 c-5 -9 -7 -38 -4 -64 4 -38 9 -49 25 -51 16 -3 18 -1 8 9
-16 17 -17 61 -1 77 8 8 9 12 1 12 -6 0 -13 8 -15 18 -4 16 -4 16 -14 -1z"/>
<path d="M1670 6565 c0 -37 4 -65 10 -65 6 0 10 18 10 40 0 33 3 40 20 40 17
0 20 -7 20 -40 0 -22 5 -40 10 -40 11 0 14 59 4 84 -3 9 -17 16 -30 16 -15 0
-24 6 -24 15 0 8 -4 15 -10 15 -6 0 -10 -28 -10 -65z"/>
<path d="M1920 6566 c0 -37 4 -66 10 -66 6 0 10 11 10 25 0 19 5 25 23 25 35
0 59 22 55 51 -3 21 -9 24 -50 27 l-48 3 0 -65z m78 27 c-2 -11 -14 -19 -31
-21 -22 -3 -27 1 -27 17 0 17 6 21 31 21 24 0 30 -4 27 -17z"/>
<path d="M2040 6620 c0 -5 5 -10 10 -10 6 0 10 5 10 10 0 6 -4 10 -10 10 -5 0
-10 -4 -10 -10z"/>
<path d="M2580 6565 c0 -37 4 -65 10 -65 6 0 10 28 10 65 0 37 -4 65 -10 65
-6 0 -10 -28 -10 -65z"/>
<path d="M730 6550 c0 -27 5 -50 10 -50 6 0 10 18 10 40 0 33 3 40 20 40 17 0
20 -7 20 -40 0 -22 5 -40 10 -40 11 0 14 59 4 84 -4 10 -18 16 -40 16 l-34 0
0 -50z"/>
<path d="M880 6550 c0 -27 5 -50 10 -50 6 0 10 18 10 40 0 29 4 40 15 40 8 0
15 5 15 10 0 6 -11 10 -25 10 -23 0 -25 -3 -25 -50z"/>
<path d="M946 6584 c-30 -30 -9 -84 33 -84 25 0 41 20 41 50 0 47 -42 66 -74
34z m54 -34 c0 -23 -4 -30 -20 -30 -11 0 -23 7 -26 15 -9 23 3 45 26 45 16 0
20 -7 20 -30z"/>
<path d="M1142 6553 c3 -48 3 -48 41 -50 l37 -1 0 49 c0 57 -17 66 -22 12 -2
-27 -8 -39 -20 -41 -15 -3 -18 4 -18 37 0 23 -5 41 -11 41 -6 0 -9 -19 -7 -47z"/>
<path d="M1251 6591 c-8 -5 -14 -24 -14 -41 0 -32 15 -50 44 -50 20 0 45 28
34 38 -4 4 -10 1 -12 -5 -6 -18 -40 -16 -47 2 -11 30 5 47 37 41 25 -5 28 -4
17 9 -14 17 -38 19 -59 6z"/>
<path d="M1330 6550 c0 -27 5 -50 10 -50 6 0 10 23 10 50 0 28 -4 50 -10 50
-5 0 -10 -22 -10 -50z"/>
<path d="M1370 6550 c0 -27 5 -50 10 -50 6 0 10 18 10 40 0 33 3 40 20 40 17
0 20 -7 20 -40 0 -22 5 -40 10 -40 11 0 14 59 4 84 -4 10 -18 16 -40 16 l-34
0 0 -50z"/>
<path d="M1468 6575 c-17 -38 4 -79 37 -72 18 3 25 0 25 -11 0 -11 -7 -13 -31
-8 -22 4 -29 2 -27 -7 6 -17 46 -21 64 -7 9 8 14 32 14 70 l0 57 -35 1 c-29 1
-38 -3 -47 -23z m60 -28 c3 -22 -1 -27 -18 -27 -23 0 -35 22 -26 46 10 25 41
12 44 -19z"/>
<path d="M1783 6592 c-12 -8 -18 -31 -15 -64 2 -20 34 -32 62 -23 31 10 24 25
-9 19 -20 -4 -30 -2 -34 10 -5 13 1 16 28 16 36 0 46 15 23 38 -14 14 -37 15
-55 4z m40 -19 c-7 -2 -19 -2 -25 0 -7 3 -2 5 12 5 14 0 19 -2 13 -5z"/>
<path d="M2040 6550 c0 -27 5 -50 10 -50 6 0 10 23 10 50 0 28 -4 50 -10 50
-5 0 -10 -22 -10 -50z"/>
<path d="M2080 6550 c0 -27 5 -50 10 -50 6 0 10 18 10 40 0 33 3 40 20 40 17
0 20 -7 20 -40 0 -22 5 -40 10 -40 11 0 14 59 4 84 -4 10 -18 16 -40 16 l-34
0 0 -50z"/>
<path d="M2193 6592 c-12 -8 -18 -31 -15 -64 2 -20 34 -32 62 -23 31 10 24 25
-9 19 -20 -4 -30 -2 -34 10 -5 13 1 16 28 16 36 0 46 15 23 38 -14 14 -37 15
-55 4z m40 -19 c-7 -2 -19 -2 -25 0 -7 3 -2 5 12 5 14 0 19 -2 13 -5z"/>
<path d="M2287 6594 c-15 -16 -6 -23 23 -17 39 7 40 -13 1 -22 -57 -12 -44
-55 17 -53 33 1 33 1 30 47 -3 43 -5 46 -33 49 -17 2 -34 0 -38 -4z m53 -64
c0 -5 -12 -10 -26 -10 -14 0 -23 4 -19 10 3 6 15 10 26 10 10 0 19 -4 19 -10z"/>
<path d="M2380 6530 c0 -40 4 -70 10 -70 6 0 10 9 10 20 0 13 7 20 18 20 25 0
42 20 42 50 0 34 -17 50 -52 50 -28 0 -28 0 -28 -70z m60 20 c0 -23 -4 -30
-20 -30 -16 0 -20 7 -20 30 0 23 4 30 20 30 16 0 20 -7 20 -30z"/>
<path d="M2480 6530 c0 -40 4 -70 10 -70 6 0 10 9 10 20 0 13 7 20 18 20 25 0
42 20 42 50 0 34 -17 50 -52 50 -28 0 -28 0 -28 -70z m60 20 c0 -23 -4 -30
-20 -30 -16 0 -20 7 -20 30 0 23 4 30 20 30 16 0 20 -7 20 -30z"/>
<path d="M2633 6592 c-12 -8 -18 -31 -15 -64 2 -20 34 -32 62 -23 31 10 24 25
-9 19 -20 -4 -30 -2 -34 10 -5 13 1 16 28 16 36 0 46 15 23 38 -14 14 -37 15
-55 4z m40 -19 c-7 -2 -19 -2 -25 0 -7 3 -2 5 12 5 14 0 19 -2 13 -5z"/>
<path d="M4765 6490 c-3 -5 -5 -26 -5 -47 1 -21 -3 -96 -8 -168 -5 -71 -9
-165 -8 -207 0 -43 -3 -78 -7 -78 -5 0 -7 -15 -5 -32 2 -22 10 -36 26 -44 l23
-12 -25 -6 c-32 -8 -34 -18 -45 -191 -4 -77 -13 -151 -20 -163 -7 -12 -30 -36
-53 -52 -45 -33 -45 -35 -2 -20 16 6 81 21 144 35 63 13 160 35 214 48 55 14
105 23 111 21 6 -3 53 14 105 36 51 22 99 40 105 40 6 0 22 11 35 25 13 14 32
25 42 25 22 0 22 -22 1 302 -15 237 -18 267 -34 271 -12 3 -16 0 -12 -9 4 -10
-3 -14 -25 -14 -17 0 -32 6 -35 13 -3 9 -7 9 -19 0 -8 -7 -18 -10 -21 -6 -4 3
-7 4 -7 1 0 -11 38 -48 49 -48 19 0 12 -19 -11 -31 -41 -22 -79 -19 -91 8 -8
18 -8 29 0 42 10 15 7 20 -13 30 -14 6 -34 11 -44 11 -20 0 -70 -43 -70 -60 0
-21 -20 -9 -26 15 -6 24 -34 36 -34 15 0 -20 -27 -9 -38 15 -9 20 -17 24 -47
21 -19 -1 -35 1 -35 6 0 4 -8 8 -18 8 -9 0 -23 9 -30 20 -7 11 -21 20 -33 20
-11 0 -18 4 -14 10 3 5 0 18 -6 28 -7 12 -9 27 -4 38 5 11 7 22 7 27 -1 4 3 7
8 7 6 0 9 14 8 30 -2 29 -20 40 -33 20z"/>
<path d="M6330 6425 c-19 -7 -45 -11 -57 -8 -17 4 -23 1 -23 -11 0 -21 -30
-33 -40 -16 -7 11 -11 10 -24 -3 -9 -8 -16 -20 -16 -26 0 -6 -15 -11 -32 -10
-18 0 -27 3 -20 6 19 8 14 20 -12 25 -23 5 -23 3 -30 -91 -3 -53 -6 -118 -6
-144 l0 -48 38 7 c20 4 40 12 44 19 4 7 19 16 33 19 14 4 24 12 22 19 -1 7 11
11 36 11 20 -1 37 2 37 7 0 5 9 9 20 9 11 0 20 3 20 8 0 13 49 31 56 20 4 -6
10 -6 17 1 6 6 21 11 34 11 13 0 23 4 23 9 0 4 27 12 61 15 74 9 89 14 89 32
0 15 16 19 24 6 6 -10 76 -3 76 8 0 4 -7 13 -15 20 -25 21 -18 40 15 40 24 0
30 4 30 23 0 22 -2 22 -145 23 -120 1 -148 3 -163 17 -22 20 -44 20 -92 2z
m290 -63 c0 -15 -8 -17 -47 -16 -64 2 -65 4 -13 19 60 17 60 18 60 -3z"/>
<path d="M810 6355 c0 -37 4 -65 10 -65 6 0 10 11 10 25 0 20 5 25 24 25 14 0
32 7 40 16 33 33 11 64 -46 64 l-38 0 0 -65z m75 25 c0 -9 -11 -16 -27 -18
-23 -3 -28 1 -28 18 0 17 5 21 28 18 16 -2 27 -9 27 -18z"/>
<path d="M1200 6410 c0 -5 5 -10 10 -10 6 0 10 5 10 10 0 6 -4 10 -10 10 -5 0
-10 -4 -10 -10z"/>
<path d="M1450 6405 c0 -8 -5 -15 -12 -15 -9 0 -9 -3 0 -12 7 -7 12 -29 12
-50 0 -21 5 -38 10 -38 6 0 10 18 10 39 0 22 5 43 10 46 6 4 10 -12 10 -39 0
-25 5 -46 10 -46 6 0 10 16 10 35 0 24 6 37 20 45 18 10 20 8 20 -23 0 -41 17
-58 54 -55 24 2 26 6 26 50 0 26 -4 48 -10 48 -5 0 -10 -18 -10 -41 0 -33 -3
-40 -17 -37 -13 2 -19 14 -21 41 l-3 37 -51 0 c-44 0 -49 2 -38 15 10 13 9 15
-9 15 -12 0 -21 -6 -21 -15z"/>
<path d="M1650 6410 c0 -5 5 -10 10 -10 6 0 10 5 10 10 0 6 -4 10 -10 10 -5 0
-10 -4 -10 -10z"/>
<path d="M1698 6403 c-8 -32 4 -113 16 -113 10 0 12 43 7 118 -1 18 -18 15
-23 -5z"/>
<path d="M1807 6413 c-4 -3 -7 -17 -7 -29 0 -17 7 -25 28 -30 33 -8 54 -23 46
-35 -8 -13 -48 -11 -62 3 -17 17 -28 2 -12 -17 23 -28 100 -10 100 24 0 13
-23 29 -53 36 -15 4 -27 13 -27 21 0 18 47 19 53 2 2 -7 8 -10 12 -6 14 13
-16 38 -45 38 -14 0 -30 -3 -33 -7z"/>
<path d="M1918 6403 c-8 -32 4 -113 16 -113 10 0 12 43 7 118 -1 18 -18 15
-23 -5z"/>
<path d="M2120 6405 c0 -10 -10 -15 -30 -15 -29 0 -30 -1 -30 -50 0 -27 5 -50
10 -50 6 0 10 16 10 35 0 24 6 37 20 45 19 10 20 8 20 -33 0 -43 0 -44 35 -45
29 -1 38 3 47 23 16 36 -3 75 -37 75 -16 0 -25 6 -25 15 0 8 -4 15 -10 15 -5
0 -10 -7 -10 -15z m65 -65 c0 -29 -32 -41 -41 -16 -9 24 4 48 23 44 12 -2 18
-12 18 -28z"/>
<path d="M2410 6355 c0 -37 4 -65 10 -65 6 0 10 9 10 19 0 30 16 33 28 6 7
-14 16 -25 22 -25 14 0 13 7 -6 36 -16 23 -15 26 1 44 23 25 0 28 -27 3 -17
-15 -18 -14 -18 15 0 18 -4 32 -10 32 -6 0 -10 -28 -10 -65z"/>
<path d="M930 6376 c-11 -14 -9 -15 19 -10 41 8 41 -11 0 -25 -46 -16 -36 -46
16 -47 l41 -2 -6 47 c-4 40 -8 46 -31 49 -14 2 -31 -4 -39 -12z m50 -56 c0 -5
-9 -10 -20 -10 -11 0 -20 5 -20 10 0 6 9 10 20 10 11 0 20 -4 20 -10z"/>
<path d="M1023 6374 c-7 -18 19 -44 44 -44 7 0 13 -5 13 -11 0 -7 -11 -9 -31
-5 -22 4 -29 2 -27 -7 7 -18 53 -20 68 -3 10 13 10 19 0 31 -7 8 -18 15 -26
15 -7 0 -16 5 -20 11 -5 8 1 10 20 7 17 -4 25 -1 23 6 -6 19 -56 19 -64 0z"/>
<path d="M1113 6374 c-7 -18 19 -44 44 -44 7 0 13 -5 13 -11 0 -7 -11 -9 -31
-5 -22 4 -29 2 -27 -7 7 -18 53 -20 68 -3 10 13 10 19 0 31 -7 8 -18 15 -26
15 -7 0 -16 5 -20 11 -5 8 1 10 20 7 17 -4 25 -1 23 6 -6 19 -56 19 -64 0z"/>
<path d="M1200 6340 c0 -27 5 -50 10 -50 6 0 10 23 10 50 0 28 -4 50 -10 50
-5 0 -10 -22 -10 -50z"/>
<path d="M1252 6378 c-15 -15 -15 -61 0 -76 38 -38 93 12 70 63 -13 27 -49 34
-70 13z m53 -38 c0 -18 -6 -26 -22 -28 -20 -3 -23 1 -23 28 0 27 3 31 23 28
16 -2 22 -10 22 -28z"/>
<path d="M1340 6339 c0 -57 17 -66 22 -12 2 27 8 39 21 41 14 3 17 -4 17 -37
0 -23 5 -41 11 -41 6 0 9 19 7 48 -3 47 -3 47 -40 49 l-38 1 0 -49z"/>
<path d="M1650 6340 c0 -27 5 -50 10 -50 6 0 10 23 10 50 0 28 -4 50 -10 50
-5 0 -10 -22 -10 -50z"/>
<path d="M1970 6376 c-11 -14 -9 -15 19 -10 41 8 41 -11 0 -25 -46 -16 -36
-46 16 -47 l41 -2 -6 47 c-4 40 -8 46 -31 49 -14 2 -31 -4 -39 -12z m50 -56
c0 -5 -9 -10 -20 -10 -11 0 -20 5 -20 10 0 6 9 10 20 10 11 0 20 -4 20 -10z"/>
<path d="M2220 6351 c0 -44 16 -62 54 -59 24 2 26 6 26 50 0 26 -4 48 -10 48
-5 0 -10 -18 -10 -41 0 -33 -3 -40 -17 -37 -13 2 -19 14 -21 41 -4 49 -22 48
-22 -2z"/>
<path d="M2332 6378 c-17 -17 -15 -63 3 -78 19 -15 65 -5 65 15 0 8 -4 15 -10
15 -5 0 -10 -4 -10 -10 0 -5 -9 -10 -20 -10 -16 0 -20 7 -20 31 0 30 2 31 31
25 22 -4 29 -2 27 7 -6 17 -50 21 -66 5z"/>
<path d="M2503 6374 c-7 -18 19 -44 44 -44 7 0 13 -5 13 -11 0 -7 -11 -9 -31
-5 -22 4 -29 2 -27 -7 7 -18 53 -20 68 -3 10 13 10 19 0 31 -7 8 -18 15 -26
15 -7 0 -16 5 -20 11 -5 8 1 10 20 7 17 -4 25 -1 23 6 -6 19 -56 19 -64 0z"/>
<path d="M620 6146 c0 -37 4 -66 10 -66 6 0 10 11 10 25 0 34 28 33 56 -2 12
-16 26 -25 30 -20 4 4 -3 18 -15 31 -19 20 -20 24 -6 30 11 4 15 15 13 33 -3
26 -7 28 -50 31 l-48 3 0 -65z m78 27 c-2 -11 -14 -19 -31 -21 -22 -3 -27 1
-27 17 0 17 6 21 31 21 24 0 30 -4 27 -17z"/>
<path d="M852 6193 c-11 -22 -3 -113 9 -113 5 0 9 18 9 39 0 22 5 43 11 47 8
4 7 9 -2 15 -10 6 -11 9 -1 9 6 0 12 5 12 10 0 17 -29 11 -38 -7z"/>
<path d="M1150 6145 c0 -37 4 -65 10 -65 6 0 10 18 10 41 0 33 3 40 18 37 12
-2 18 -14 20 -41 4 -44 22 -50 22 -6 0 41 -16 69 -40 69 -11 0 -20 7 -20 15 0
8 -4 15 -10 15 -6 0 -10 -28 -10 -65z"/>
<path d="M1507 6192 c-10 -10 -17 -25 -17 -32 0 -10 -5 -9 -18 3 -23 21 -46
22 -63 1 -11 -14 -10 -18 6 -30 10 -8 25 -14 32 -14 7 0 13 -5 13 -11 0 -7
-11 -9 -30 -5 -17 3 -30 1 -30 -5 0 -15 27 -22 55 -15 37 9 33 41 -7 56 -24 9
-28 14 -16 17 22 5 58 -14 58 -31 0 -21 34 -46 63 -46 34 0 67 32 67 65 0 55
-77 87 -113 47z m83 -12 c11 -11 20 -27 20 -35 0 -20 -36 -55 -57 -55 -25 0
-53 30 -53 56 0 23 33 54 57 54 7 0 22 -9 33 -20z"/>
<path d="M1520 6146 c0 -35 20 -53 20 -18 1 16 1 16 14 0 19 -26 24 -22 22 15
-1 27 -6 32 -29 35 -25 3 -27 1 -27 -32z m40 14 c0 -5 -4 -10 -10 -10 -5 0
-10 5 -10 10 0 6 5 10 10 10 6 0 10 -4 10 -10z"/>
<path d="M1680 6145 c0 -65 0 -65 28 -65 35 0 52 16 52 50 0 30 -17 50 -42 50
-10 0 -18 7 -18 15 0 8 -4 15 -10 15 -6 0 -10 -28 -10 -65z m60 -15 c0 -23 -4
-30 -20 -30 -16 0 -20 7 -20 30 0 23 4 30 20 30 16 0 20 -7 20 -30z"/>
<path d="M2740 6189 c0 -11 -5 -17 -10 -14 -6 3 -19 3 -30 0 -15 -5 -20 -15
-20 -39 0 -39 15 -56 52 -56 28 0 28 0 28 65 0 37 -4 65 -10 65 -5 0 -10 -9
-10 -21z m0 -59 c0 -23 -5 -30 -19 -30 -10 0 -21 7 -25 15 -8 23 4 45 25 45
14 0 19 -7 19 -30z"/>
<path d="M748 6155 c-24 -52 36 -103 71 -61 10 12 6 14 -20 13 -18 -1 -34 4
-36 11 -3 8 7 12 31 12 37 0 47 15 24 38 -21 21 -57 14 -70 -13z m55 -2 c-7
-2 -21 -2 -30 0 -10 3 -4 5 12 5 17 0 24 -2 18 -5z"/>
<path d="M900 6130 c0 -27 5 -50 10 -50 6 0 10 16 10 36 0 23 6 42 18 50 15
12 14 13 -10 14 -27 0 -28 -2 -28 -50z"/>
<path d="M958 6155 c-24 -52 36 -103 71 -61 10 12 6 14 -20 13 -18 -1 -34 4
-36 11 -3 8 7 12 31 12 37 0 47 15 24 38 -21 21 -57 14 -70 -13z m55 -2 c-7
-2 -21 -2 -30 0 -10 3 -4 5 12 5 17 0 24 -2 18 -5z"/>
<path d="M1059 6164 c-11 -14 -10 -18 6 -30 10 -8 25 -14 32 -14 7 0 13 -5 13
-11 0 -7 -11 -9 -30 -5 -17 3 -30 1 -30 -5 0 -15 27 -22 55 -15 36 9 33 41 -5
55 -39 13 -39 25 1 17 27 -5 30 -4 19 9 -16 20 -44 19 -61 -1z"/>
<path d="M1248 6155 c-24 -52 36 -103 71 -61 10 12 6 14 -20 13 -18 -1 -34 4
-36 11 -3 8 7 12 31 12 37 0 47 15 24 38 -21 21 -57 14 -70 -13z m55 -2 c-7
-2 -21 -2 -30 0 -10 3 -4 5 12 5 17 0 24 -2 18 -5z"/>
<path d="M1350 6130 c0 -27 5 -50 10 -50 6 0 10 16 10 36 0 23 6 42 18 50 15
12 14 13 -10 14 -27 0 -28 -2 -28 -50z"/>
<path d="M1793 6172 c-12 -8 -18 -31 -15 -64 2 -20 34 -32 62 -23 31 10 24 25
-9 19 -20 -4 -30 -2 -34 10 -5 13 1 16 28 16 36 0 46 15 23 38 -14 14 -37 15
-55 4z m40 -19 c-7 -2 -19 -2 -25 0 -7 3 -2 5 12 5 14 0 19 -2 13 -5z"/>
<path d="M1888 6130 c9 -27 21 -50 27 -50 6 0 18 23 27 51 11 32 13 49 5 46
-6 -2 -16 -19 -22 -38 l-12 -34 -12 38 c-7 20 -16 37 -21 37 -4 0 -1 -22 8
-50z"/>
<path d="M1983 6172 c-12 -8 -18 -31 -15 -64 2 -20 34 -32 62 -23 31 10 24 25
-9 19 -20 -4 -30 -2 -34 10 -5 13 1 16 28 16 36 0 46 15 23 38 -14 14 -37 15
-55 4z m40 -19 c-7 -2 -19 -2 -25 0 -7 3 -2 5 12 5 14 0 19 -2 13 -5z"/>
<path d="M2070 6130 c0 -27 5 -50 10 -50 6 0 10 18 10 40 0 29 4 40 15 40 8 0
15 5 15 10 0 6 -11 10 -25 10 -23 0 -25 -3 -25 -50z"/>
<path d="M2137 6174 c-15 -16 -6 -23 23 -17 39 7 40 -13 1 -22 -57 -12 -44
-55 17 -53 33 1 33 1 30 47 -3 43 -5 46 -33 49 -17 2 -34 0 -38 -4z m53 -64
c0 -5 -12 -10 -26 -10 -14 0 -23 4 -19 10 3 6 15 10 26 10 10 0 19 -4 19 -10z"/>
<path d="M2242 6168 c-7 -7 -12 -24 -12 -38 0 -30 17 -50 42 -50 10 0 18 -5
18 -11 0 -7 -11 -9 -31 -5 -22 4 -29 2 -27 -7 6 -17 46 -21 64 -7 9 8 14 32
14 71 0 58 -1 59 -28 59 -15 0 -33 -5 -40 -12z m48 -38 c0 -23 -5 -30 -19 -30
-21 0 -33 22 -25 45 4 8 15 15 25 15 14 0 19 -7 19 -30z"/>
<path d="M2342 6168 c-17 -17 -15 -63 2 -78 18 -14 58 -10 64 7 2 9 -5 11 -27
7 -24 -5 -31 -3 -31 10 0 12 9 16 35 16 29 0 33 3 28 18 -12 32 -48 43 -71 20z
m41 -15 c-7 -2 -19 -2 -25 0 -7 3 -2 5 12 5 14 0 19 -2 13 -5z"/>
<path d="M2487 6174 c-15 -16 -6 -23 23 -17 40 8 40 -13 -1 -22 -24 -5 -29
-11 -27 -28 2 -18 10 -22 41 -24 l38 -1 -3 46 c-3 44 -5 47 -33 50 -17 2 -34
0 -38 -4z m53 -64 c0 -5 -9 -10 -20 -10 -11 0 -20 5 -20 10 0 6 9 10 20 10 11
0 20 -4 20 -10z"/>
<path d="M2580 6129 c0 -27 5 -49 10 -49 6 0 10 18 10 40 0 33 3 40 20 40 17
0 20 -7 20 -40 0 -22 5 -40 11 -40 6 0 9 19 7 48 -3 47 -3 47 -40 49 l-38 1 0
-49z"/>
<path d="M704 5987 c-5 -9 -7 -38 -4 -64 4 -38 9 -49 25 -51 16 -3 18 -1 8 9
-16 17 -17 61 -1 77 8 8 9 12 1 12 -6 0 -13 8 -15 18 -4 16 -4 16 -14 -1z"/>
<path d="M750 5935 c0 -37 4 -65 10 -65 6 0 10 18 10 40 0 33 3 40 20 40 17 0
20 -7 20 -40 0 -22 5 -40 11 -40 6 0 9 19 7 48 -3 44 -5 47 -30 47 -20 -1 -28
4 -28 17 0 10 -4 18 -10 18 -6 0 -10 -28 -10 -65z"/>
<path d="M1010 5985 c-18 -22 -5 -43 32 -53 44 -11 51 -42 10 -42 -17 0 -32 6
-35 13 -2 6 -8 9 -12 5 -14 -13 16 -38 45 -38 59 0 67 56 10 75 -19 6 -34 16
-33 21 3 15 33 17 49 3 19 -16 30 -4 14 16 -16 19 -64 19 -80 0z"/>
<path d="M1124 5987 c-5 -9 -7 -38 -4 -64 4 -38 9 -49 25 -51 16 -3 18 -1 8 9
-16 17 -17 61 -1 77 8 8 9 12 1 12 -6 0 -13 8 -15 18 -4 16 -4 16 -14 -1z"/>
<path d="M1330 5935 c0 -65 0 -65 29 -65 34 0 54 20 54 56 0 30 -19 46 -45 40
-13 -3 -18 2 -18 15 0 10 -4 19 -10 19 -6 0 -10 -28 -10 -65z m64 0 c8 -23 -4
-45 -25 -45 -14 0 -19 7 -19 30 0 23 5 30 19 30 10 0 21 -7 25 -15z"/>
<path d="M1620 5935 c0 -37 4 -65 10 -65 6 0 10 9 10 20 0 11 3 20 8 20 4 0
13 -9 20 -20 7 -11 17 -20 23 -20 6 0 1 15 -10 34 -19 30 -19 35 -6 46 9 7 13
15 10 18 -3 3 -14 -3 -25 -13 -20 -18 -20 -17 -20 13 0 18 -4 32 -10 32 -6 0
-10 -28 -10 -65z"/>
<path d="M1810 5980 c-41 -41 -10 -110 48 -110 35 0 65 30 65 65 0 58 -72 86
-113 45z m78 -6 c12 -8 22 -25 22 -36 0 -27 -28 -58 -52 -58 -22 0 -58 34 -58
55 0 18 35 55 53 55 7 0 23 -7 35 -16z"/>
<path d="M1831 5933 c1 -21 3 -30 6 -20 6 21 19 22 27 2 3 -8 10 -15 16 -15 6
0 8 5 3 13 -4 6 -6 22 -4 35 2 18 -2 22 -23 22 -24 0 -26 -4 -25 -37z m39 17
c0 -5 -7 -10 -15 -10 -8 0 -15 5 -15 10 0 6 7 10 15 10 8 0 15 -4 15 -10z"/>
<path d="M1990 5935 c0 -37 4 -65 10 -65 6 0 10 11 10 25 0 19 5 25 21 25 31
0 59 18 59 38 0 28 -21 42 -62 42 l-38 0 0 -65z m78 28 c-2 -11 -14 -19 -31
-21 -22 -3 -27 1 -27 17 0 17 6 21 31 21 24 0 30 -4 27 -17z"/>
<path d="M2430 5982 c0 -13 -8 -18 -26 -17 -35 0 -51 -26 -38 -62 7 -22 17
-29 42 -31 l32 -3 0 65 c0 36 -2 66 -5 66 -3 0 -5 -8 -5 -18z m-5 -62 c0 -29
-32 -41 -41 -16 -9 24 4 48 23 44 12 -2 18 -12 18 -28z"/>
<path d="M2470 5990 c0 -5 5 -10 10 -10 6 0 10 5 10 10 0 6 -4 10 -10 10 -5 0
-10 -4 -10 -10z"/>
<path d="M862 5958 c-17 -17 -15 -63 2 -78 18 -14 58 -10 64 7 2 9 -5 11 -27
7 -24 -5 -31 -3 -31 10 0 12 9 16 35 16 29 0 33 3 28 18 -12 32 -48 43 -71 20z
m41 -15 c-7 -2 -19 -2 -25 0 -7 3 -2 5 12 5 14 0 19 -2 13 -5z"/>
<path d="M1177 5964 c-15 -16 -6 -23 23 -17 40 8 40 -13 -1 -22 -24 -5 -29
-11 -27 -28 2 -18 10 -22 41 -24 l38 -1 -3 46 c-3 44 -5 47 -33 50 -17 2 -34
0 -38 -4z m53 -64 c0 -5 -9 -10 -20 -10 -11 0 -20 5 -20 10 0 6 9 10 20 10 11
0 20 -4 20 -10z"/>
<path d="M1270 5920 c0 -27 5 -50 10 -50 6 0 10 18 10 40 0 29 4 40 15 40 8 0
15 5 15 10 0 6 -11 10 -25 10 -23 0 -25 -3 -25 -50z"/>
<path d="M1432 5923 c3 -48 3 -48 41 -50 l37 -1 0 49 c0 27 -4 49 -10 49 -5 0
-10 -18 -10 -40 0 -33 -3 -40 -20 -40 -17 0 -20 7 -20 40 0 22 -5 40 -11 40
-6 0 -9 -19 -7 -47z"/>
<path d="M1542 5958 c-28 -28 -8 -88 29 -88 20 0 45 28 34 38 -4 4 -10 1 -12
-5 -3 -7 -13 -13 -24 -13 -15 0 -19 7 -19 31 0 30 2 31 31 25 27 -5 30 -4 19
9 -15 18 -42 19 -58 3z"/>
<path d="M1717 5964 c-12 -12 -8 -44 6 -44 7 0 22 -7 33 -16 18 -15 17 -15
-14 -10 -24 4 -32 2 -30 -7 7 -18 53 -20 68 -3 16 20 -2 46 -31 46 -11 0 -19
5 -19 11 0 7 10 9 26 5 19 -5 25 -3 22 6 -5 14 -50 23 -61 12z"/>
<path d="M2117 5963 c-12 -12 -7 -22 8 -17 8 4 23 3 33 -1 14 -6 10 -10 -18
-20 -24 -8 -35 -18 -35 -31 0 -15 8 -19 43 -20 38 -2 42 0 42 21 0 44 -18 75
-43 75 -13 0 -27 -3 -30 -7z m48 -63 c-3 -5 -15 -10 -26 -10 -11 0 -17 5 -14
10 3 6 15 10 26 10 11 0 17 -4 14 -10z"/>
<path d="M2210 5920 c0 -27 5 -50 10 -50 6 0 10 16 10 36 0 23 6 42 18 50 15
12 14 13 -10 14 -27 0 -28 -2 -28 -50z"/>
<path d="M2277 5963 c-12 -12 -7 -22 8 -17 8 4 23 3 33 -1 14 -6 10 -10 -18
-20 -24 -8 -35 -18 -35 -31 0 -15 8 -19 43 -20 38 -2 42 0 42 21 0 44 -18 75
-43 75 -13 0 -27 -3 -30 -7z m48 -63 c-3 -5 -15 -10 -26 -10 -11 0 -17 5 -14
10 3 6 15 10 26 10 11 0 17 -4 14 -10z"/>
<path d="M2470 5920 c0 -27 5 -50 10 -50 6 0 10 23 10 50 0 28 -4 50 -10 50
-5 0 -10 -22 -10 -50z"/>
<path d="M2509 5954 c-11 -14 -10 -18 6 -30 10 -8 25 -14 32 -14 7 0 13 -5 13
-11 0 -7 -11 -9 -30 -5 -17 3 -30 1 -30 -5 0 -15 27 -22 55 -15 36 9 33 41 -5
55 -39 13 -39 25 1 17 27 -5 30 -4 19 9 -16 20 -44 19 -61 -1z"/>
<path d="M2598 5945 c-24 -52 36 -103 71 -61 10 12 6 14 -20 13 -18 -1 -34 4
-36 11 -3 8 7 12 31 12 37 0 47 15 24 38 -21 21 -57 14 -70 -13z m55 -2 c-7
-2 -21 -2 -30 0 -10 3 -4 5 12 5 17 0 24 -2 18 -5z"/>
<path d="M6359 5916 c-2 -2 -35 -7 -74 -10 -94 -9 -111 -11 -177 -25 -57 -12
-57 -12 -63 -54 -3 -23 -6 -69 -8 -102 -2 -57 -4 -60 -45 -92 -24 -18 -39 -33
-34 -33 6 0 25 12 43 27 l32 27 -5 -57 c-4 -46 -11 -64 -34 -88 -31 -33 -115
-78 -149 -80 -11 0 -14 -3 -8 -6 7 -2 48 7 90 20 43 14 112 35 153 47 41 12
122 38 180 59 58 21 146 50 195 66 110 34 178 67 199 97 26 37 20 81 -16 121
-39 41 -91 63 -173 72 -33 3 -69 8 -81 10 -12 3 -23 3 -25 1z"/>
<path d="M4577 5843 c-24 -6 -16 -29 9 -25 32 5 44 11 44 22 0 10 -20 11 -53
3z"/>
<path d="M990 5725 l0 -65 39 0 c46 0 65 19 65 65 0 46 -19 65 -65 65 l-39 0
0 -65z m80 20 c12 -32 -6 -65 -35 -65 -23 0 -25 3 -25 46 0 43 1 45 26 42 16
-2 30 -11 34 -23z"/>
<path d="M1170 5780 c0 -5 5 -10 10 -10 6 0 10 5 10 10 0 6 -4 10 -10 10 -5 0
-10 -4 -10 -10z"/>
<path d="M1310 5725 c0 -37 4 -65 10 -65 6 0 10 9 10 19 0 30 16 33 28 6 7
-14 16 -25 22 -25 14 0 13 7 -6 36 -16 23 -15 26 1 44 23 25 0 28 -27 3 -17
-15 -18 -14 -18 15 0 18 -4 32 -10 32 -6 0 -10 -28 -10 -65z"/>
<path d="M1580 5780 c0 -5 5 -10 10 -10 6 0 10 5 10 10 0 6 -4 10 -10 10 -5 0
-10 -4 -10 -10z"/>
<path d="M1628 5773 c-8 -32 4 -113 16 -113 10 0 12 43 7 118 -1 18 -18 15
-23 -5z"/>
<path d="M1670 5725 c0 -69 17 -90 22 -28 2 27 8 39 21 41 14 3 17 -4 17 -37
0 -23 5 -41 11 -41 6 0 9 19 7 48 -3 44 -5 47 -30 47 -20 -1 -28 4 -28 17 0
10 -4 18 -10 18 -6 0 -10 -28 -10 -65z"/>
<path d="M1110 5710 c0 -27 5 -50 10 -50 6 0 10 16 10 35 0 24 6 37 20 45 19
10 20 8 20 -35 0 -25 5 -45 10 -45 6 0 10 23 10 50 l0 50 -40 0 -40 0 0 -50z"/>
<path d="M1210 5709 c0 -57 17 -66 22 -12 2 27 8 39 21 41 14 3 17 -4 17 -37
0 -23 5 -41 11 -41 6 0 9 19 7 48 -3 47 -3 47 -40 49 l-38 1 0 -49z"/>
<path d="M1456 5713 c8 -25 16 -48 18 -51 9 -9 26 10 26 29 0 11 5 17 10 14 6
-3 10 -15 10 -26 0 -37 28 -19 39 25 13 54 13 56 2 56 -5 0 -12 -15 -16 -32
l-7 -33 -9 33 c-5 17 -14 32 -19 32 -5 0 -13 -15 -18 -32 -10 -34 -12 -32 -28
20 -2 6 -8 12 -13 12 -5 0 -3 -21 5 -47z"/>
<path d="M1580 5710 c0 -27 5 -50 10 -50 6 0 10 23 10 50 0 28 -4 50 -10 50
-5 0 -10 -22 -10 -50z"/>
<path d="M1832 5748 c-17 -17 -15 -63 3 -78 19 -15 65 -5 65 15 0 8 -4 15 -10
15 -5 0 -10 -4 -10 -10 0 -5 -9 -10 -20 -10 -16 0 -20 7 -20 31 0 30 2 31 31
25 22 -4 29 -2 27 7 -6 17 -50 21 -66 5z"/>
<path d="M1910 5710 c0 -27 5 -50 10 -50 6 0 10 15 10 34 0 23 7 38 23 49 22
16 22 16 -10 16 -33 1 -33 1 -33 -49z"/>
<path d="M1982 5748 c-7 -7 -12 -24 -12 -38 0 -14 5 -31 12 -38 16 -16 53 -15
67 2 10 12 6 14 -20 13 -18 -1 -34 4 -36 11 -3 8 7 12 31 12 39 0 41 2 26 31
-12 21 -50 25 -68 7z m51 -15 c-7 -2 -21 -2 -30 0 -10 3 -4 5 12 5 17 0 24 -2
18 -5z"/>
<path d="M2080 5746 c-11 -14 -9 -15 19 -10 41 8 41 -11 0 -25 -46 -16 -36
-46 16 -47 l41 -2 -6 47 c-4 40 -8 46 -31 49 -14 2 -31 -4 -39 -12z m50 -56
c0 -5 -9 -10 -20 -10 -11 0 -20 5 -20 10 0 6 9 10 20 10 11 0 20 -4 20 -10z"/>
<path d="M2170 5709 c0 -57 17 -66 22 -12 2 27 8 39 21 41 14 3 17 -4 17 -37
0 -23 5 -41 10 -41 6 0 10 18 10 41 0 33 3 40 18 37 11 -2 19 -16 23 -43 7
-38 7 -38 5 10 l-1 50 -62 1 -63 2 0 -49z"/>
<path d="M2320 5750 c0 -6 7 -27 15 -47 8 -19 15 -42 15 -49 0 -8 -7 -14 -15
-14 -8 0 -15 -4 -15 -10 0 -5 7 -10 15 -10 9 0 24 20 35 46 27 62 34 94 22 94
-6 0 -13 -13 -17 -30 -4 -16 -10 -30 -15 -30 -5 0 -11 14 -15 30 -6 28 -25 43
-25 20z"/>
<path d="M5397 5676 c-11 -29 -8 -46 8 -46 16 0 18 14 6 44 -7 18 -8 18 -14 2z"/>
<path d="M5440 5641 c0 -6 14 -17 30 -26 17 -9 30 -13 30 -11 0 3 -13 14 -30
26 -16 12 -30 17 -30 11z"/>
<path d="M4640 5620 c-9 -6 -10 -10 -3 -10 6 0 15 5 18 10 8 12 4 12 -15 0z"/>
<path d="M4313 5613 c9 -2 23 -2 30 0 6 3 -1 5 -18 5 -16 0 -22 -2 -12 -5z"/>
<path d="M4378 5613 c6 -2 18 -2 25 0 6 3 1 5 -13 5 -14 0 -19 -2 -12 -5z"/>
<path d="M5397 5599 c7 -27 23 -34 23 -11 0 11 -6 22 -14 25 -10 4 -12 0 -9
-14z"/>
<path d="M4163 5603 c-20 -4 -22 -10 -19 -44 3 -41 29 -79 53 -79 8 0 12 4 9
9 -7 11 17 21 52 22 18 0 22 3 12 7 -41 18 -58 38 -55 65 3 28 -1 30 -52 20z"/>
<path d="M4598 5603 c7 -3 16 -2 19 1 4 3 -2 6 -13 5 -11 0 -14 -3 -6 -6z"/>
<path d="M4238 5593 c6 -2 18 -2 25 0 6 3 1 5 -13 5 -14 0 -19 -2 -12 -5z"/>
<path d="M4538 5593 c7 -3 16 -2 19 1 4 3 -2 6 -13 5 -11 0 -14 -3 -6 -6z"/>
<path d="M4325 5580 c28 -5 64 -8 80 -8 26 0 24 1 -10 9 -22 4 -58 8 -80 7
-39 -1 -39 -1 10 -8z"/>
<path d="M4458 5583 c12 -2 32 -2 45 0 12 2 2 4 -23 4 -25 0 -35 -2 -22 -4z"/>
<path d="M1784 5567 c-5 -9 -7 -38 -4 -64 4 -38 9 -49 25 -51 16 -3 18 -1 8 9
-16 17 -17 61 -1 77 8 8 9 12 1 12 -6 0 -13 8 -15 18 -4 16 -4 16 -14 -1z"/>
<path d="M1980 5570 c0 -5 5 -10 10 -10 6 0 10 5 10 10 0 6 -4 10 -10 10 -5 0
-10 -4 -10 -10z"/>
<path d="M2020 5515 c0 -37 4 -65 10 -65 6 0 10 28 10 65 0 37 -4 65 -10 65
-6 0 -10 -28 -10 -65z"/>
<path d="M2060 5515 c0 -64 15 -90 22 -37 l4 27 14 -27 c7 -16 19 -28 26 -28
10 0 8 9 -6 32 -18 30 -18 34 -3 50 20 23 6 24 -19 1 -17 -15 -18 -14 -18 15
0 18 -4 32 -10 32 -6 0 -10 -28 -10 -65z"/>
<path d="M5451 5548 c11 -38 59 -90 66 -70 3 6 19 12 36 13 l32 0 -22 16 c-13
9 -23 26 -23 39 0 13 -3 24 -7 25 -5 0 -27 2 -50 4 l-42 5 10 -32z"/>
<path d="M5703 5553 c9 -2 25 -2 35 0 9 3 1 5 -18 5 -19 0 -27 -2 -17 -5z"/>
<path d="M1213 5542 c-12 -8 -18 -31 -15 -64 3 -26 49 -34 72 -13 11 10 20 13
20 7 0 -17 48 -26 65 -12 8 7 15 25 15 40 0 15 -7 33 -15 40 -21 17 -62 4 -71
-22 -14 -44 -56 -64 -68 -33 -11 30 5 47 37 41 25 -5 28 -4 17 9 -14 16 -38
19 -57 7z m137 -42 c0 -23 -4 -30 -20 -30 -11 0 -23 7 -26 15 -9 23 3 45 26
45 16 0 20 -7 20 -30z"/>
<path d="M1403 5542 c-12 -8 -18 -31 -15 -64 3 -26 49 -34 72 -13 11 10 20 13
20 7 0 -17 48 -26 65 -12 8 7 15 25 15 40 0 15 -7 33 -15 40 -21 17 -62 4 -71
-22 -14 -44 -56 -64 -68 -33 -11 30 5 47 37 41 25 -5 28 -4 17 9 -14 16 -38
19 -57 7z m137 -42 c0 -23 -4 -30 -20 -30 -11 0 -23 7 -26 15 -9 23 3 45 26
45 16 0 20 -7 20 -30z"/>
<path d="M1580 5500 c0 -27 5 -50 10 -50 6 0 10 18 10 40 0 33 3 40 20 40 17
0 20 -7 20 -40 0 -22 5 -40 10 -40 11 0 14 59 4 84 -4 10 -18 16 -40 16 l-34
0 0 -50z"/>
<path d="M1682 5503 c3 -48 3 -48 41 -50 l37 -1 0 49 c0 57 -17 66 -22 12 -2
-27 -8 -39 -20 -41 -15 -3 -18 4 -18 37 0 23 -5 41 -11 41 -6 0 -9 -19 -7 -47z"/>
<path d="M1830 5500 c0 -28 5 -50 10 -50 6 0 10 18 10 40 0 29 4 40 15 40 11
0 15 -11 15 -40 0 -51 18 -53 22 -3 2 27 8 39 21 41 14 3 17 -4 17 -37 0 -23
5 -41 11 -41 6 0 9 19 7 48 l-3 47 -62 2 -63 3 0 -50z"/>
<path d="M1980 5500 c0 -27 5 -50 10 -50 6 0 10 23 10 50 0 28 -4 50 -10 50
-5 0 -10 -22 -10 -50z"/>
<path d="M4350 5511 c0 -5 11 -11 25 -13 17 -4 25 -1 25 8 0 8 -11 14 -25 14
-14 0 -25 -4 -25 -9z"/>
<path d="M2150 5460 c0 -5 7 -10 15 -10 8 0 15 5 15 10 0 6 -7 10 -15 10 -8 0
-15 -4 -15 -10z"/>
<path d="M4555 5450 c-13 -6 -15 -9 -5 -9 8 0 22 4 30 9 18 12 2 12 -25 0z"/>
<path d="M4508 5433 c7 -3 16 -2 19 1 4 3 -2 6 -13 5 -11 0 -14 -3 -6 -6z"/>
<path d="M5683 5413 c26 -2 68 -2 95 0 26 2 4 3 -48 3 -52 0 -74 -1 -47 -3z"/>
<path d="M1142 4980 c-96 -59 -96 -201 0 -260 32 -19 52 -20 548 -20 496 0
516 1 548 20 96 59 96 201 0 260 -32 19 -52 20 -548 20 -496 0 -516 -1 -548
-20z m1077 -8 c52 -26 76 -65 76 -122 0 -57 -24 -96 -76 -122 -31 -16 -77 -18
-529 -18 -452 0 -498 2 -529 18 -52 26 -76 65 -76 122 0 57 24 96 76 122 31
16 77 18 529 18 452 0 498 -2 529 -18z"/>
<path d="M1290 4860 l0 -60 43 2 c36 1 38 2 10 5 -33 4 -33 5 -33 59 0 30 -4
54 -10 54 -6 0 -10 -27 -10 -60z"/>
<path d="M1379 4869 c-16 -31 3 -69 35 -69 25 0 43 16 31 28 -3 3 -10 0 -15
-7 -4 -8 -15 -11 -24 -8 -27 10 -18 27 14 27 23 0 30 5 30 19 0 35 -53 42 -71
10z m55 -4 c4 -11 -1 -15 -19 -15 -18 0 -23 4 -19 15 4 8 12 15 19 15 7 0 15
-7 19 -15z"/>
<path d="M1477 4884 c-4 -4 -7 -12 -7 -18 0 -6 5 -5 12 2 14 14 38 16 38 3 0
-5 -10 -13 -22 -17 -50 -15 -43 -54 9 -54 34 0 34 0 31 43 -3 37 -6 42 -28 45
-14 2 -29 0 -33 -4z m35 -66 c-11 -11 -32 -3 -32 12 0 12 34 18 39 7 2 -5 -1
-13 -7 -19z"/>
<path d="M1562 4843 c1 -40 2 -42 5 -13 2 19 11 41 20 48 15 11 14 12 -5 12
-20 0 -22 -5 -20 -47z"/>
<path d="M1610 4846 c0 -25 5 -46 10 -46 6 0 10 18 10 40 0 29 4 40 15 40 11
0 15 -11 15 -40 0 -22 5 -40 11 -40 6 0 9 17 7 43 -3 39 -5 42 -35 45 -33 3
-33 3 -33 -42z"/>
<path d="M1740 4845 c0 -54 17 -61 22 -8 4 52 28 56 28 4 0 -51 18 -54 22 -4
4 52 28 56 28 4 0 -23 5 -41 11 -41 6 0 9 17 7 43 l-3 42 -57 3 -58 2 0 -45z"/>
<path d="M1880 4876 c-28 -35 11 -93 48 -70 35 22 22 84 -18 84 -10 0 -23 -7
-30 -14z m45 -32 c0 -19 -5 -29 -15 -29 -16 0 -25 28 -16 51 10 25 31 10 31
-22z"/>
<path d="M1972 4843 c1 -40 2 -42 5 -13 2 19 11 41 20 48 15 11 14 12 -5 12
-20 0 -22 -5 -20 -47z"/>
<path d="M2019 4869 c-16 -31 3 -69 35 -69 25 0 43 16 31 28 -3 3 -10 0 -15
-7 -4 -8 -15 -11 -24 -8 -27 10 -18 27 14 27 23 0 30 5 30 19 0 35 -53 42 -71
10z m55 -4 c4 -11 -1 -15 -19 -15 -18 0 -23 4 -19 15 4 8 12 15 19 15 7 0 15
-7 19 -15z"/>
<path d="M0 1445 c0 -1212 2 -1345 16 -1345 8 0 12 -4 9 -10 -10 -16 0 -12 26
11 22 19 22 21 7 30 -15 8 -16 13 -5 29 7 12 18 18 29 15 11 -4 19 1 24 17 4
13 2 24 -5 26 -6 2 -11 11 -11 20 0 13 2 13 13 -3 8 -10 19 -15 25 -11 7 4 12
3 12 -3 0 -5 -5 -11 -11 -13 -6 -2 -2 -13 9 -26 13 -14 23 -19 27 -12 8 13 25
13 25 -1 0 -5 -4 -7 -10 -4 -6 3 -7 -1 -3 -10 4 -12 8 -13 13 -4 5 6 19 10 34
7 16 -3 31 1 38 10 11 13 8 14 -20 8 -21 -5 -32 -4 -32 3 0 6 8 11 18 11 12 0
10 4 -8 13 -14 7 -26 21 -28 32 -4 20 -4 20 12 0 20 -26 20 -15 1 21 -8 16
-15 23 -15 17 0 -7 -8 -13 -17 -13 -15 0 -14 2 3 14 15 11 22 12 33 3 12 -10
13 -9 8 7 -6 14 -4 17 10 12 9 -4 20 -2 23 4 5 8 10 5 14 -6 4 -10 4 -15 0
-11 -12 11 -34 -14 -34 -38 0 -12 6 -28 14 -34 12 -10 13 -8 9 10 -5 18 -3 21
11 16 14 -6 16 -3 11 13 -4 11 -2 20 4 20 10 0 15 -14 12 -32 0 -5 8 -8 20 -8
17 0 18 2 7 15 -36 40 -38 43 -25 49 9 3 8 7 -3 15 -11 8 -11 11 -2 11 7 0 15
-6 18 -14 3 -8 12 -12 19 -10 7 3 21 -6 31 -21 21 -33 27 -27 19 19 -4 21 -11
33 -18 29 -6 -3 -7 -1 -3 6 4 6 11 9 16 6 5 -3 11 -1 15 5 4 6 15 2 27 -10 27
-25 38 -25 38 -2 0 14 -2 15 -10 2 -6 -9 -10 -10 -10 -3 0 6 5 15 11 18 6 4 8
14 5 22 -3 8 -1 11 4 8 6 -3 10 -15 10 -26 0 -11 7 -19 16 -19 10 0 14 6 10
15 -3 8 2 28 12 45 14 25 15 32 3 39 -15 10 -7 31 12 30 9 0 8 -2 -1 -6 -6 -2
-10 -9 -6 -14 8 -14 24 -11 24 6 0 8 4 15 9 15 5 0 5 -15 1 -35 -4 -19 -6 -35
-3 -35 3 0 0 -7 -7 -15 -7 -8 -8 -15 -3 -15 15 0 32 22 26 36 -2 7 0 21 6 31
9 15 11 12 9 -17 -1 -19 -6 -41 -12 -48 -7 -9 -6 -16 3 -22 10 -6 10 -9 1 -15
-7 -4 -16 -1 -21 6 -7 11 -9 11 -9 1 0 -7 -7 -12 -16 -10 -10 2 -18 -3 -20
-10 -1 -7 0 -9 2 -4 6 11 54 3 54 -9 0 -5 -7 -9 -15 -9 -8 0 -15 -5 -15 -11 0
-5 5 -7 10 -4 5 3 10 1 10 -4 0 -6 -4 -11 -10 -11 -5 0 -10 -7 -10 -16 0 -14
3 -14 15 -4 13 11 18 10 30 -6 12 -16 14 -17 15 -3 0 9 6 22 14 28 12 10 15 7
18 -18 2 -23 6 -28 17 -22 7 5 14 20 14 34 0 17 6 27 20 31 13 3 18 10 14 20
-4 9 -3 16 2 16 5 0 14 14 21 30 7 17 19 30 26 30 10 0 13 8 8 28 l-6 27 21
-25 c15 -19 21 -39 21 -84 0 -55 2 -61 41 -100 23 -22 41 -43 40 -46 -2 -2 24
-14 56 -25 42 -16 83 -21 153 -22 l95 -1 -90 7 c-89 8 -114 13 -167 32 -26 10
-26 11 -10 39 14 24 15 34 5 59 -6 17 -8 31 -5 31 4 -1 34 -7 67 -15 89 -22
228 -19 295 6 30 11 72 24 92 28 21 5 44 14 53 21 13 11 15 8 15 -14 0 -61
-48 -115 -136 -152 l-59 -24 48 5 c27 2 53 8 59 11 6 4 23 9 37 11 14 1 46 6
71 9 25 4 55 6 67 6 13 0 20 4 17 9 -9 16 49 -14 94 -48 24 -18 52 -33 63 -33
13 0 19 -7 20 -22 1 -19 2 -19 6 -5 3 11 10 16 20 13 8 -3 19 -6 24 -6 5 0 9
-7 9 -16 0 -11 -6 -14 -20 -9 -18 6 -20 2 -18 -25 3 -35 23 -50 65 -49 l28 1
-29 13 c-27 11 -46 45 -25 45 5 0 9 7 9 15 0 8 4 15 10 15 5 0 7 -13 3 -31 -5
-25 -2 -31 16 -36 11 -3 21 -9 21 -14 0 -6 304 -9 749 -9 617 1 749 4 745 14
-4 10 -15 12 -39 6 -26 -6 -32 -5 -28 6 3 8 9 11 14 8 5 -3 17 0 26 5 17 10
17 10 1 11 -10 0 -18 4 -18 10 0 5 3 9 8 7 4 -1 7 3 7 8 0 6 -5 9 -11 9 -6 -1
-11 9 -11 22 0 13 3 22 7 19 4 -3 13 2 20 10 16 19 1 19 -26 0 -21 -14 -21
-13 -19 28 1 23 -1 51 -5 62 -8 24 -2 47 11 39 5 -3 9 5 9 17 0 22 1 22 13 4
11 -14 16 -15 22 -5 5 8 2 16 -9 22 -17 10 -22 38 -6 38 6 0 10 -4 10 -10 0
-5 7 -7 15 -4 8 4 15 15 15 25 0 10 4 19 9 19 12 0 22 -29 15 -42 -4 -6 -1 -9
7 -6 8 3 14 16 13 29 -1 13 5 29 12 37 17 17 18 59 2 65 -10 4 -10 7 0 18 18
19 18 1903 0 1896 -20 -7 -58 11 -58 28 0 8 -4 15 -10 15 -19 0 -10 21 13 30
12 5 15 9 7 9 -11 1 -11 4 -2 13 10 10 15 10 22 -2 8 -12 10 -11 10 7 0 12 5
25 12 29 6 4 8 3 4 -4 -3 -6 -2 -13 4 -17 14 -9 13 28 -2 43 -8 8 -8 12 -1 12
7 0 11 45 12 130 l1 130 -1010 0 c-798 0 -1009 -3 -1004 -13 5 -9 4 -9 -7 1
-10 9 -161 12 -686 12 l-673 0 0 -1345z m1345 1325 c3 -5 2 -10 -4 -10 -5 0
-13 5 -16 10 -3 6 -2 10 4 10 5 0 13 -4 16 -10z m1992 -97 c-3 -10 -5 -4 -5
12 0 17 2 24 5 18 2 -7 2 -21 0 -30z m27 -119 c3 -8 2 -12 -4 -9 -6 3 -10 -1
-10 -10 0 -9 -4 -13 -10 -10 -6 4 -5 13 3 25 14 24 13 24 21 4z m-113 -27
c-10 -9 -11 -8 -5 6 3 10 9 15 12 12 3 -3 0 -11 -7 -18z m69 13 c0 -5 -2 -10
-4 -10 -3 0 -8 5 -11 10 -3 6 -1 10 4 10 6 0 11 -4 11 -10z m-43 -55 c0 -8 -4
-15 -9 -15 -10 0 -11 14 -1 23 9 10 10 9 10 -8z m48 5 c-3 -5 -11 -10 -16 -10
-6 0 -7 5 -4 10 3 6 11 10 16 10 6 0 7 -4 4 -10z m-55 -62 c0 -19 -2 -20 -10
-8 -13 19 -13 30 0 30 6 0 10 -10 10 -22z m-49 -19 c-9 -22 -10 -22 -10 -3 -1
11 2 24 6 27 12 12 14 0 4 -24z m83 -24 c4 -11 -2 -15 -22 -14 -19 1 -22 3 -8
6 15 4 16 7 5 14 -11 7 -11 9 2 9 9 0 19 -7 23 -15z m-1914 -455 c147 -17 214
-51 159 -80 -28 -16 -18 -23 15 -11 32 13 31 18 11 -144 -20 -156 -36 -239
-45 -225 -8 12 -33 -35 -45 -82 -4 -14 -15 -34 -24 -45 -10 -10 -16 -24 -13
-31 7 -22 -15 -13 -32 13 -9 14 -25 25 -35 25 -30 0 -34 29 -6 40 14 5 25 15
24 22 0 10 -2 10 -6 0 -4 -10 -8 -10 -19 -1 -8 6 -14 8 -14 3 0 -5 -5 -2 -10
6 -7 11 -12 12 -21 3 -6 -6 -18 -9 -26 -6 -8 3 -24 1 -36 -5 -37 -18 -52 -19
-62 -6 -20 24 -50 25 -75 1 -25 -22 -60 -25 -60 -5 0 6 -6 6 -15 -2 -8 -7 -12
-17 -8 -24 4 -8 2 -7 -7 1 -7 6 -19 9 -26 6 -8 -3 -25 2 -38 10 -18 12 -26 13
-35 4 -9 -9 -16 -9 -30 0 -10 7 -36 9 -59 6 -34 -5 -43 -10 -51 -36 -20 -56
-7 -87 48 -116 17 -9 19 -19 17 -59 -2 -26 -4 -60 -5 -77 l-1 -30 -34 40 c-29
34 -36 38 -50 26 -9 -7 -16 -23 -16 -34 0 -14 -3 -18 -10 -11 -6 6 -12 71 -14
147 -2 106 -6 141 -20 161 -19 31 -20 31 -51 10 -17 -11 -25 -26 -26 -48 l-1
-31 -9 30 c-5 17 -20 120 -34 230 -14 110 -28 214 -31 230 -5 24 -4 28 7 18 7
-7 19 -13 27 -13 12 0 12 3 2 15 -23 28 10 48 110 67 137 26 489 30 680 8z
m1170 0 c186 -13 300 -44 270 -74 -8 -8 -13 -7 -19 2 -7 11 -9 11 -14 -1 -3
-8 -22 -20 -41 -27 -20 -6 -35 -14 -34 -18 4 -14 -24 -53 -35 -49 -7 2 -21 1
-32 -4 -18 -7 -18 -8 -2 -8 10 -1 15 -6 12 -12 -4 -6 -22 -8 -45 -4 -22 4 -41
2 -44 -4 -4 -6 -13 -8 -20 -5 -8 3 -17 1 -20 -4 -10 -17 23 -22 39 -5 14 14
18 13 36 -8 14 -17 19 -34 17 -64 -3 -39 -4 -40 -38 -40 -29 0 -36 4 -38 23
-3 17 2 25 17 29 12 3 17 11 14 19 -7 19 -32 18 -55 -3 -17 -15 -19 -15 -36 0
-12 11 -22 13 -32 7 -25 -16 -43 -12 -37 9 3 12 -1 22 -9 25 -17 7 -44 -3 -44
-15 0 -5 -19 -9 -42 -9 -51 0 -39 -21 13 -22 27 -1 43 -11 82 -52 42 -45 46
-51 29 -57 -11 -4 -22 -14 -25 -21 -9 -25 5 -67 24 -73 25 -8 24 -13 -6 -58
-14 -20 -24 -41 -21 -46 3 -4 -10 -23 -29 -41 -38 -37 -45 -56 -18 -46 13 5
11 0 -6 -18 -32 -34 -96 -37 -106 -6 -3 11 -11 20 -17 20 -19 0 -48 -32 -48
-53 0 -32 -26 -2 -44 50 -21 61 -21 94 -1 87 47 -18 127 65 140 146 13 84 12
95 -10 95 -24 0 -33 -38 -15 -60 10 -12 7 -17 -14 -25 -27 -10 -28 -21 -10
-78 2 -7 -1 -10 -6 -7 -6 3 -10 12 -10 20 0 19 -107 114 -136 121 -37 9 -40
-2 -16 -51 30 -61 28 -65 -12 -26 -31 30 -39 33 -73 27 -21 -4 -51 -8 -68 -10
-27 -3 -30 -7 -28 -35 1 -25 -3 -31 -15 -29 -14 3 -17 18 -20 83 -2 72 0 83
21 106 32 36 59 49 100 49 42 0 69 25 37 35 -11 3 -18 10 -15 15 6 10 -28 8
-36 -3 -10 -14 -39 5 -39 25 0 11 -8 22 -20 25 -17 5 -18 7 -4 21 10 10 32 15
63 14 26 0 53 3 61 8 10 7 -1 10 -36 10 -28 0 -59 6 -70 15 -14 11 -15 14 -4
15 29 0 100 35 106 52 3 9 17 19 32 21 55 8 371 7 502 -3z m-630 -39 c-11 -22
-73 -46 -96 -37 -8 3 -12 11 -8 17 9 15 64 38 92 39 19 0 21 -3 12 -19z m-22
-158 c11 -11 11 -16 -2 -28 -22 -23 -33 -18 -38 15 -4 23 -1 30 11 28 9 -2 22
-9 29 -15z m882 -97 c0 -3 -4 -8 -10 -11 -5 -3 -10 -1 -10 4 0 6 5 11 10 11 6
0 10 -2 10 -4z m-70 -40 c0 -24 -20 -29 -36 -10 -13 18 -15 18 -27 2 -13 -16
-57 -21 -57 -7 0 11 51 27 88 28 21 1 32 -4 32 -13z m-656 -125 c7 -11 -22
-23 -35 -15 -5 3 -9 9 -9 15 0 12 37 12 44 0z m66 -168 c0 -7 -4 -13 -10 -13
-5 0 -10 11 -10 24 0 14 -5 28 -10 31 -6 4 -7 12 -3 18 7 11 32 -35 33 -60z
m-1483 5 c-3 -8 -6 -5 -6 6 -1 11 2 17 5 13 3 -3 4 -12 1 -19z m463 2 c0 -5
-9 -24 -20 -42 -11 -18 -20 -45 -20 -60 0 -34 -16 -37 -24 -4 -7 29 1 53 26
80 10 11 18 23 18 28 0 4 5 8 10 8 6 0 10 -4 10 -10z m1630 -65 c0 -8 -4 -15
-10 -15 -5 0 -10 7 -10 15 0 8 5 15 10 15 6 0 10 -7 10 -15z m67 -40 c0 -15
-26 -30 -35 -20 -4 4 22 30 34 35 0 0 1 -7 1 -15z m-750 -13 c12 -6 34 -12 50
-12 15 0 43 -9 61 -20 37 -23 44 -46 10 -35 -13 4 -42 10 -65 12 -36 4 -43 2
-54 -18 -7 -13 -13 -61 -13 -106 -1 -46 -2 -83 -3 -83 -1 0 -11 20 -21 43 -11
24 -33 53 -49 65 -25 18 -30 28 -30 65 0 24 -6 57 -14 73 l-15 29 60 0 c34 0
71 -6 83 -13z m675 -14 c-6 -6 -15 -8 -19 -4 -4 4 -1 11 7 16 19 12 27 3 12
-12z m221 -5 c-7 -3 -10 -10 -7 -18 3 -7 0 -16 -7 -21 -8 -4 -10 -3 -5 4 4 7
2 12 -5 12 -7 0 -9 -9 -6 -22 6 -22 6 -22 -9 -3 -16 21 -13 41 5 37 6 -1 14 5
17 13 3 8 11 12 17 8 8 -5 8 -8 0 -10z m-108 -13 c-3 -5 -11 -10 -16 -10 -6 0
-7 5 -4 10 3 6 11 10 16 10 6 0 7 -4 4 -10z m-40 -33 c0 -15 55 -28 75 -17 18
9 30 4 30 -12 0 -5 -5 -6 -10 -3 -6 3 -13 -1 -16 -9 -3 -9 -10 -14 -14 -11 -4
3 -10 -2 -14 -10 -3 -8 -14 -15 -25 -15 -11 0 -23 -5 -27 -12 -5 -7 -2 -9 7
-4 8 4 5 0 -6 -8 -11 -9 -28 -23 -37 -31 -23 -19 -25 2 -3 31 8 10 14 28 14
39 l0 20 -9 -20 c-7 -14 -8 -8 -3 20 6 41 21 70 32 59 3 -3 6 -11 6 -17z
m-1675 -88 c0 -6 -4 -7 -10 -4 -5 3 -10 11 -10 16 0 6 5 7 10 4 6 -3 10 -11
10 -16z m1880 -193 c0 -3 -4 -8 -10 -11 -5 -3 -10 -1 -10 4 0 6 5 11 10 11 6
0 10 -2 10 -4z m-2610 -366 c0 -5 -4 -10 -10 -10 -5 0 -10 5 -10 10 0 6 5 10
10 10 6 0 10 -4 10 -10z m-115 -29 c3 -5 1 -12 -5 -16 -5 -3 -10 1 -10 9 0 18
6 21 15 7z m182 -16 c0 -8 -6 -15 -14 -15 -17 0 -17 17 0 23 6 3 12 6 13 6 0
1 1 -6 1 -14z m951 -40 c0 -16 -9 -30 -22 -37 -20 -11 -20 -10 -3 9 9 11 14
22 11 26 -5 5 3 27 10 27 2 0 4 -11 4 -25z m-1135 -5 c-3 -12 -8 -19 -11 -16
-5 6 5 36 12 36 2 0 2 -9 -1 -20z m1753 -69 c1 -21 5 -50 9 -62 6 -23 5 -23
-19 4 -17 18 -26 40 -26 60 0 18 -3 43 -6 57 l-7 25 24 -22 c15 -15 24 -36 25
-62z m639 32 c-4 -27 -15 -61 -24 -77 -19 -34 -91 -80 -171 -109 -107 -38
-301 -22 -369 32 -44 34 -19 41 140 41 93 0 149 4 149 10 0 6 -5 10 -12 10
-30 0 12 20 70 33 56 13 89 9 62 -8 -18 -11 -11 -25 13 -25 13 0 29 -6 35 -12
10 -10 15 -10 22 2 11 17 13 50 3 50 -3 0 -15 -7 -25 -17 -22 -20 -29 -15 -21
15 3 13 22 31 42 41 20 11 45 28 55 40 30 33 38 25 31 -26z m-2360 18 c-8 -14
-25 -14 -25 0 0 5 5 7 10 4 6 -3 10 -1 10 6 0 7 3 10 6 6 3 -3 3 -10 -1 -16z
m-85 -30 c0 -11 -47 -31 -54 -24 -13 13 -5 21 14 16 12 -3 20 -2 19 3 -3 18 1
25 11 19 6 -3 10 -10 10 -14z m70 -1 c0 -5 -5 -10 -11 -10 -5 0 -7 5 -4 10 3
6 8 10 11 10 2 0 4 -4 4 -10z m350 -36 c0 -8 -5 -12 -10 -9 -6 4 -8 11 -5 16
9 14 15 11 15 -7z m-57 -19 c-6 -17 -33 -8 -33 10 0 8 8 11 19 8 11 -3 17 -11
14 -18z m2637 0 c-7 -9 -15 -13 -19 -10 -3 3 1 10 9 15 21 14 24 12 10 -5z
m-990 -11 c0 -2 -13 -4 -30 -4 -16 0 -30 4 -30 8 0 5 14 7 30 4 17 -2 30 -6
30 -8z m-1613 -26 c-3 -8 -6 -5 -6 6 -1 11 2 17 5 13 3 -3 4 -12 1 -19z m-470
-30 c-3 -8 -6 -5 -6 6 -1 11 2 17 5 13 3 -3 4 -12 1 -19z m3071 -20 c-3 -7
-13 -15 -23 -16 -15 -4 -16 -2 -4 12 17 19 32 21 27 4z m2 -40 c0 -7 -4 -19
-9 -26 -6 -10 -11 -9 -22 4 -12 16 -12 17 5 11 14 -6 17 -4 12 8 -3 8 -1 15 4
15 6 0 10 -6 10 -12z m7 -62 c-3 -7 -1 -18 5 -24 9 -9 -2 -10 -30 -3 -1 1 2
10 8 21 12 23 25 27 17 6z m-277 -15 c0 -5 -6 -14 -14 -20 -12 -10 -13 -8 -9
8 5 21 23 30 23 12z m-67 -68 c-7 -2 -19 -2 -25 0 -7 3 -2 5 12 5 14 0 19 -2
13 -5z"/>
<path d="M1245 1520 c3 -5 8 -10 11 -10 2 0 4 5 4 10 0 6 -5 10 -11 10 -5 0
-7 -4 -4 -10z"/>
<path d="M1410 1405 c0 -8 5 -15 10 -15 6 0 10 7 10 15 0 8 -4 15 -10 15 -5 0
-10 -7 -10 -15z"/>
<path d="M2344 1895 c11 -8 27 -15 35 -15 9 0 3 7 -13 15 -36 19 -47 19 -22 0z"/>
<path d="M2442 1891 c-13 -13 -12 -16 4 -22 11 -4 31 -5 46 -2 16 3 44 -3 71
-16 35 -17 55 -20 108 -16 35 3 73 6 83 6 38 0 -8 29 -79 49 -80 23 -141 26
-148 8 -4 -10 -7 -10 -14 -1 -11 16 -52 12 -71 -6z"/>
<path d="M2110 1884 c1 -20 19 -37 34 -31 17 7 22 27 7 27 -5 0 -16 3 -25 6
-9 3 -16 2 -16 -2z"/>
<path d="M2355 1831 c-19 -16 -45 -54 -45 -66 0 -8 45 -6 56 4 5 4 28 13 52
19 36 8 44 7 51 -6 11 -20 17 -16 26 21 6 22 4 27 -11 28 -37 3 -61 6 -85 12
-15 4 -31 -1 -44 -12z"/>
<path d="M2047 1772 c-9 -2 -15 -8 -12 -13 4 -5 1 -9 -4 -9 -6 0 -11 -4 -11
-10 0 -17 34 -10 62 13 26 21 26 22 5 23 -12 0 -30 -1 -40 -4z"/>
<path d="M2323 1274 c-3 -8 -2 -19 4 -25 5 -5 9 1 11 16 2 28 -6 33 -15 9z"/>
<path d="M2781 1108 c-1 -21 3 -26 20 -25 16 1 18 3 6 12 -7 5 -16 17 -20 25
-3 9 -6 4 -6 -12z"/>
<path d="M2830 1085 c0 -8 4 -15 10 -15 5 0 7 7 4 15 -4 8 -8 15 -10 15 -2 0
-4 -7 -4 -15z"/>
<path d="M3360 2444 c0 -8 5 -12 10 -9 6 4 8 11 5 16 -9 14 -15 11 -15 -7z"/>
<path d="M390 300 c0 -5 4 -10 9 -10 6 0 13 5 16 10 3 6 -1 10 -9 10 -9 0 -16
-4 -16 -10z"/>
<path d="M320 270 c0 -6 4 -9 9 -6 5 4 12 1 14 -4 3 -6 4 -5 3 2 -3 15 -26 23
-26 8z"/>
<path d="M390 245 c-15 -19 -31 -31 -40 -28 -13 4 -13 4 0 -6 12 -8 19 -5 32
12 17 22 17 22 32 2 13 -18 15 -18 21 -3 4 9 1 26 -7 36 -13 19 -14 18 -38
-13z m38 -16 c-3 -8 -7 -3 -11 10 -4 17 -3 21 5 13 5 -5 8 -16 6 -23z"/>
<path d="M3300 230 c0 -5 5 -10 11 -10 5 0 7 5 4 10 -3 6 -8 10 -11 10 -2 0
-4 -4 -4 -10z"/>
<path d="M532 210 c-7 -11 -8 -20 -3 -20 9 0 24 30 18 36 -1 2 -8 -6 -15 -16z"/>
<path d="M285 197 c8 -13 12 -27 8 -30 -3 -4 -1 -7 5 -7 16 0 15 21 -2 43 -20
25 -29 21 -11 -6z"/>
<path d="M485 210 c-3 -5 -1 -10 4 -10 6 0 11 5 11 10 0 6 -2 10 -4 10 -3 0
-8 -4 -11 -10z"/>
<path d="M3270 190 c0 -5 6 -10 13 -10 8 0 7 -4 -3 -10 -8 -5 -10 -10 -4 -10
16 0 23 10 17 26 -6 16 -23 19 -23 4z"/>
<path d="M950 176 c16 -16 213 -20 243 -5 23 13 11 14 -113 14 -84 0 -135 -4
-130 -9z"/>
<path d="M545 160 c-16 -7 -17 -9 -3 -9 9 -1 20 4 23 9 7 11 7 11 -20 0z"/>
<path d="M66 151 c-6 -10 22 -37 29 -29 8 7 -5 38 -15 38 -5 0 -11 -4 -14 -9z"/>
<path d="M142 138 c2 -5 8 -9 13 -9 5 0 11 4 13 9 1 5 -4 9 -13 9 -9 0 -14 -4
-13 -9z"/>
<path d="M1178 143 c6 -2 18 -2 25 0 6 3 1 5 -13 5 -14 0 -19 -2 -12 -5z"/>
<path d="M145 100 c4 -6 11 -8 16 -5 14 9 11 15 -7 15 -8 0 -12 -5 -9 -10z"/>
<path d="M61 71 c-7 -13 -8 -22 -1 -26 6 -3 10 4 10 17 1 23 1 23 16 3 15 -19
16 -19 12 -1 -4 27 -25 31 -37 7z"/>
<path d="M185 55 c0 -13 3 -21 8 -18 4 2 7 10 7 18 0 8 -3 16 -7 18 -5 3 -8
-5 -8 -18z"/>
<path d="M10 60 c0 -5 5 -10 11 -10 5 0 7 5 4 10 -3 6 -8 10 -11 10 -2 0 -4
-4 -4 -10z"/>
<path d="M17 29 c7 -7 15 -10 18 -7 3 3 -2 9 -12 12 -14 6 -15 5 -6 -5z"/>
<path d="M3320 20 c6 -11 16 -20 22 -20 6 0 3 9 -7 20 -23 25 -29 25 -15 0z"/>
</g>
</svg>
